<?xml version="1.0" encoding="utf-8" standalone="no"?>
<!DOCTYPE svg PUBLIC "-//W3C//DTD SVG 1.1//EN"
  "http://www.w3.org/Graphics/SVG/1.1/DTD/svg11.dtd">
<svg xmlns:xlink="http://www.w3.org/1999/xlink" width="406.08pt" height="115.2pt" viewBox="0 0 406.08 115.2" xmlns="http://www.w3.org/2000/svg" version="1.1">
 <metadata>
  <rdf:RDF xmlns:dc="http://purl.org/dc/elements/1.1/" xmlns:cc="http://creativecommons.org/ns#" xmlns:rdf="http://www.w3.org/1999/02/22-rdf-syntax-ns#">
   <cc:Work>
    <dc:type rdf:resource="http://purl.org/dc/dcmitype/StillImage"/>
    <dc:date>2026-07-13T00:02:17.961799</dc:date>
    <dc:format>image/svg+xml</dc:format>
    <dc:creator>
     <cc:Agent>
      <dc:title>Matplotlib v3.10.8, https://matplotlib.org/</dc:title>
     </cc:Agent>
    </dc:creator>
   </cc:Work>
  </rdf:RDF>
 </metadata>
 <defs>
  <style type="text/css">*{stroke-linejoin: round; stroke-linecap: butt}</style>
 </defs>
 <g id="figure_1">
  <g id="patch_1">
   <path d="M 0 115.2 
L 406.08 115.2 
L 406.08 0 
L 0 0 
z
" style="fill: #ffffff"/>
  </g>
  <g id="axes_1">
   <g id="patch_2">
    <path d="M 18.2304 59.59584 
L 90.5472 59.59584 
Q 97.77888 59.59584 97.77888 57.6 
L 97.77888 37.6416 
Q 97.77888 35.64576 90.5472 35.64576 
L 18.2304 35.64576 
Q 10.99872 35.64576 10.99872 37.6416 
L 10.99872 57.6 
Q 10.99872 59.59584 18.2304 59.59584 
z
" clip-path="url(#p1b637ae01e)" style="fill: #ddf1e9; stroke: #222222; stroke-linejoin: miter"/>
   </g>
   <g id="patch_3">
    <path d="M 96.562811 47.6208 
Q 118.669492 47.6208 139.546336 47.6208 
" clip-path="url(#p1b637ae01e)" style="fill: none; stroke: #222222; stroke-width: 1.1; stroke-linecap: round"/>
    <path d="M 134.746336 45.2208 
L 139.546336 47.6208 
L 134.746336 50.0208 
z
" clip-path="url(#p1b637ae01e)" style="fill: #222222; stroke: #222222; stroke-width: 1.1; stroke-linecap: round"/>
   </g>
   <g id="patch_4">
    <path d="M 150.8112 69.7968 
L 199.0224 69.7968 
L 199.0224 57.6 
L 150.8112 57.6 
z
" clip-path="url(#p1b637ae01e)" style="fill: #dce9f8; stroke: #222222; stroke-width: 0.8; stroke-linejoin: miter"/>
   </g>
   <g id="patch_5">
    <path d="M 199.0224 69.7968 
L 259.2864 69.7968 
L 259.2864 57.6 
L 199.0224 57.6 
z
" clip-path="url(#p1b637ae01e)" style="fill: #f7ecd3; stroke: #222222; stroke-width: 0.8; stroke-linejoin: miter"/>
   </g>
   <g id="patch_6">
    <path d="M 259.2864 69.7968 
L 323.568 69.7968 
L 323.568 57.6 
L 259.2864 57.6 
z
" clip-path="url(#p1b637ae01e)" style="fill: #ddf1e9; stroke: #222222; stroke-width: 0.8; stroke-linejoin: miter"/>
   </g>
   <g id="patch_7">
    <path d="M 323.568 69.7968 
L 379.8144 69.7968 
L 379.8144 57.6 
L 323.568 57.6 
z
" clip-path="url(#p1b637ae01e)" style="fill: #f8dedb; stroke: #222222; stroke-width: 0.8; stroke-linejoin: miter"/>
   </g>
   <g id="patch_8">
    <path d="M 178.9344 103.94784 
L 331.6032 103.94784 
Q 338.83488 103.94784 338.83488 101.952 
L 338.83488 87.5376 
Q 338.83488 85.54176 331.6032 85.54176 
L 178.9344 85.54176 
Q 171.70272 85.54176 171.70272 87.5376 
L 171.70272 101.952 
Q 171.70272 103.94784 178.9344 103.94784 
z
" clip-path="url(#p1b637ae01e)" style="fill: #ededed; stroke: #222222; stroke-linejoin: miter"/>
   </g>
   <g id="line2d_1">
    <path d="M 150.8112 48.7296 
L 379.8144 48.7296 
" clip-path="url(#p1b637ae01e)" style="fill: none; stroke: #222222; stroke-width: 2; stroke-linecap: round"/>
   </g>
   <g id="line2d_2">
    <path d="M 162.26136 52.6104 
L 162.26136 44.8488 
" clip-path="url(#p1b637ae01e)" style="fill: none; stroke: #222222; stroke-linecap: square"/>
   </g>
   <g id="line2d_3">
    <path d="M 182.871648 52.6104 
L 182.871648 44.8488 
" clip-path="url(#p1b637ae01e)" style="fill: none; stroke: #222222; stroke-linecap: square"/>
   </g>
   <g id="line2d_4">
    <path d="M 212.642064 52.6104 
L 212.642064 44.8488 
" clip-path="url(#p1b637ae01e)" style="fill: none; stroke: #222222; stroke-linecap: square"/>
   </g>
   <g id="line2d_5">
    <path d="M 242.41248 52.6104 
L 242.41248 44.8488 
" clip-path="url(#p1b637ae01e)" style="fill: none; stroke: #222222; stroke-linecap: square"/>
   </g>
   <g id="line2d_6">
    <path d="M 269.892864 52.6104 
L 269.892864 44.8488 
" clip-path="url(#p1b637ae01e)" style="fill: none; stroke: #222222; stroke-linecap: square"/>
   </g>
   <g id="line2d_7">
    <path d="M 297.373248 52.6104 
L 297.373248 44.8488 
" clip-path="url(#p1b637ae01e)" style="fill: none; stroke: #222222; stroke-linecap: square"/>
   </g>
   <g id="line2d_8">
    <path d="M 320.273568 52.6104 
L 320.273568 44.8488 
" clip-path="url(#p1b637ae01e)" style="fill: none; stroke: #222222; stroke-linecap: square"/>
   </g>
   <g id="line2d_9">
    <path d="M 347.753952 52.6104 
L 347.753952 44.8488 
" clip-path="url(#p1b637ae01e)" style="fill: none; stroke: #222222; stroke-linecap: square"/>
   </g>
   <g id="line2d_10">
    <path d="M 368.36424 52.6104 
L 368.36424 44.8488 
" clip-path="url(#p1b637ae01e)" style="fill: none; stroke: #222222; stroke-linecap: square"/>
   </g>
   <g id="line2d_11">
    <path d="M 199.0224 73.1232 
L 199.0224 34.3152 
" clip-path="url(#p1b637ae01e)" style="fill: none; stroke-dasharray: 4.07,1.76; stroke-dashoffset: 0; stroke: #d62728; stroke-width: 1.1"/>
   </g>
   <g id="line2d_12">
    <path d="M 259.2864 73.1232 
L 259.2864 34.3152 
" clip-path="url(#p1b637ae01e)" style="fill: none; stroke-dasharray: 4.07,1.76; stroke-dashoffset: 0; stroke: #d62728; stroke-width: 1.1"/>
   </g>
   <g id="line2d_13">
    <path d="M 323.568 73.1232 
L 323.568 34.3152 
" clip-path="url(#p1b637ae01e)" style="fill: none; stroke-dasharray: 4.07,1.76; stroke-dashoffset: 0; stroke: #d62728; stroke-width: 1.1"/>
   </g>
   <g id="text_1">
    <!-- Step 5 - extract LD blocks to BED -->
    <g style="fill: #222222" transform="translate(18.2304 19.9008) scale(0.11 -0.11)">
     <defs>
      <path id="DejaVuSans-Bold-53" d="M 3834 4519 
L 3834 3531 
Q 3450 3703 3084 3790 
Q 2719 3878 2394 3878 
Q 1963 3878 1756 3759 
Q 1550 3641 1550 3391 
Q 1550 3203 1689 3098 
Q 1828 2994 2194 2919 
L 2706 2816 
Q 3484 2659 3812 2340 
Q 4141 2022 4141 1434 
Q 4141 663 3683 286 
Q 3225 -91 2284 -91 
Q 1841 -91 1394 -6 
Q 947 78 500 244 
L 500 1259 
Q 947 1022 1364 901 
Q 1781 781 2169 781 
Q 2563 781 2772 912 
Q 2981 1044 2981 1288 
Q 2981 1506 2839 1625 
Q 2697 1744 2272 1838 
L 1806 1941 
Q 1106 2091 782 2419 
Q 459 2747 459 3303 
Q 459 4000 909 4375 
Q 1359 4750 2203 4750 
Q 2588 4750 2994 4692 
Q 3400 4634 3834 4519 
z
" transform="scale(0.015625)"/>
      <path id="DejaVuSans-Bold-74" d="M 1759 4494 
L 1759 3500 
L 2913 3500 
L 2913 2700 
L 1759 2700 
L 1759 1216 
Q 1759 972 1856 886 
Q 1953 800 2241 800 
L 2816 800 
L 2816 0 
L 1856 0 
Q 1194 0 917 276 
Q 641 553 641 1216 
L 641 2700 
L 84 2700 
L 84 3500 
L 641 3500 
L 641 4494 
L 1759 4494 
z
" transform="scale(0.015625)"/>
      <path id="DejaVuSans-Bold-65" d="M 4031 1759 
L 4031 1441 
L 1416 1441 
Q 1456 1047 1700 850 
Q 1944 653 2381 653 
Q 2734 653 3104 758 
Q 3475 863 3866 1075 
L 3866 213 
Q 3469 63 3072 -14 
Q 2675 -91 2278 -91 
Q 1328 -91 801 392 
Q 275 875 275 1747 
Q 275 2603 792 3093 
Q 1309 3584 2216 3584 
Q 3041 3584 3536 3087 
Q 4031 2591 4031 1759 
z
M 2881 2131 
Q 2881 2450 2695 2645 
Q 2509 2841 2209 2841 
Q 1884 2841 1681 2658 
Q 1478 2475 1428 2131 
L 2881 2131 
z
" transform="scale(0.015625)"/>
      <path id="DejaVuSans-Bold-70" d="M 1656 506 
L 1656 -1331 
L 538 -1331 
L 538 3500 
L 1656 3500 
L 1656 2988 
Q 1888 3294 2169 3439 
Q 2450 3584 2816 3584 
Q 3463 3584 3878 3070 
Q 4294 2556 4294 1747 
Q 4294 938 3878 423 
Q 3463 -91 2816 -91 
Q 2450 -91 2169 54 
Q 1888 200 1656 506 
z
M 2400 2772 
Q 2041 2772 1848 2508 
Q 1656 2244 1656 1747 
Q 1656 1250 1848 986 
Q 2041 722 2400 722 
Q 2759 722 2948 984 
Q 3138 1247 3138 1747 
Q 3138 2247 2948 2509 
Q 2759 2772 2400 2772 
z
" transform="scale(0.015625)"/>
      <path id="DejaVuSans-Bold-20" transform="scale(0.015625)"/>
      <path id="DejaVuSans-Bold-35" d="M 678 4666 
L 3669 4666 
L 3669 3781 
L 1638 3781 
L 1638 3059 
Q 1775 3097 1914 3117 
Q 2053 3138 2203 3138 
Q 3056 3138 3531 2711 
Q 4006 2284 4006 1522 
Q 4006 766 3489 337 
Q 2972 -91 2053 -91 
Q 1656 -91 1267 -14 
Q 878 63 494 219 
L 494 1166 
Q 875 947 1217 837 
Q 1559 728 1863 728 
Q 2300 728 2551 942 
Q 2803 1156 2803 1522 
Q 2803 1891 2551 2103 
Q 2300 2316 1863 2316 
Q 1603 2316 1309 2248 
Q 1016 2181 678 2041 
L 678 4666 
z
" transform="scale(0.015625)"/>
      <path id="DejaVuSans-Bold-2d" d="M 347 2297 
L 2309 2297 
L 2309 1388 
L 347 1388 
L 347 2297 
z
" transform="scale(0.015625)"/>
      <path id="DejaVuSans-Bold-78" d="M 1422 1791 
L 159 3500 
L 1344 3500 
L 2059 2463 
L 2784 3500 
L 3969 3500 
L 2706 1797 
L 4031 0 
L 2847 0 
L 2059 1106 
L 1281 0 
L 97 0 
L 1422 1791 
z
" transform="scale(0.015625)"/>
      <path id="DejaVuSans-Bold-72" d="M 3138 2547 
Q 2991 2616 2845 2648 
Q 2700 2681 2553 2681 
Q 2122 2681 1889 2404 
Q 1656 2128 1656 1613 
L 1656 0 
L 538 0 
L 538 3500 
L 1656 3500 
L 1656 2925 
Q 1872 3269 2151 3426 
Q 2431 3584 2822 3584 
Q 2878 3584 2943 3579 
Q 3009 3575 3134 3559 
L 3138 2547 
z
" transform="scale(0.015625)"/>
      <path id="DejaVuSans-Bold-61" d="M 2106 1575 
Q 1756 1575 1579 1456 
Q 1403 1338 1403 1106 
Q 1403 894 1545 773 
Q 1688 653 1941 653 
Q 2256 653 2472 879 
Q 2688 1106 2688 1447 
L 2688 1575 
L 2106 1575 
z
M 3816 1997 
L 3816 0 
L 2688 0 
L 2688 519 
Q 2463 200 2181 54 
Q 1900 -91 1497 -91 
Q 953 -91 614 226 
Q 275 544 275 1050 
Q 275 1666 698 1953 
Q 1122 2241 2028 2241 
L 2688 2241 
L 2688 2328 
Q 2688 2594 2478 2717 
Q 2269 2841 1825 2841 
Q 1466 2841 1156 2769 
Q 847 2697 581 2553 
L 581 3406 
Q 941 3494 1303 3539 
Q 1666 3584 2028 3584 
Q 2975 3584 3395 3211 
Q 3816 2838 3816 1997 
z
" transform="scale(0.015625)"/>
      <path id="DejaVuSans-Bold-63" d="M 3366 3391 
L 3366 2478 
Q 3138 2634 2908 2709 
Q 2678 2784 2431 2784 
Q 1963 2784 1702 2511 
Q 1441 2238 1441 1747 
Q 1441 1256 1702 982 
Q 1963 709 2431 709 
Q 2694 709 2930 787 
Q 3166 866 3366 1019 
L 3366 103 
Q 3103 6 2833 -42 
Q 2563 -91 2291 -91 
Q 1344 -91 809 395 
Q 275 881 275 1747 
Q 275 2613 809 3098 
Q 1344 3584 2291 3584 
Q 2566 3584 2833 3536 
Q 3100 3488 3366 3391 
z
" transform="scale(0.015625)"/>
      <path id="DejaVuSans-Bold-4c" d="M 588 4666 
L 1791 4666 
L 1791 909 
L 3903 909 
L 3903 0 
L 588 0 
L 588 4666 
z
" transform="scale(0.015625)"/>
      <path id="DejaVuSans-Bold-44" d="M 1791 3756 
L 1791 909 
L 2222 909 
Q 2959 909 3348 1275 
Q 3738 1641 3738 2338 
Q 3738 3031 3350 3393 
Q 2963 3756 2222 3756 
L 1791 3756 
z
M 588 4666 
L 1856 4666 
Q 2919 4666 3439 4514 
Q 3959 4363 4331 4000 
Q 4659 3684 4818 3271 
Q 4978 2859 4978 2338 
Q 4978 1809 4818 1395 
Q 4659 981 4331 666 
Q 3956 303 3431 151 
Q 2906 0 1856 0 
L 588 0 
L 588 4666 
z
" transform="scale(0.015625)"/>
      <path id="DejaVuSans-Bold-62" d="M 2400 722 
Q 2759 722 2948 984 
Q 3138 1247 3138 1747 
Q 3138 2247 2948 2509 
Q 2759 2772 2400 2772 
Q 2041 2772 1848 2508 
Q 1656 2244 1656 1747 
Q 1656 1250 1848 986 
Q 2041 722 2400 722 
z
M 1656 2988 
Q 1888 3294 2169 3439 
Q 2450 3584 2816 3584 
Q 3463 3584 3878 3070 
Q 4294 2556 4294 1747 
Q 4294 938 3878 423 
Q 3463 -91 2816 -91 
Q 2450 -91 2169 54 
Q 1888 200 1656 506 
L 1656 0 
L 538 0 
L 538 4863 
L 1656 4863 
L 1656 2988 
z
" transform="scale(0.015625)"/>
      <path id="DejaVuSans-Bold-6c" d="M 538 4863 
L 1656 4863 
L 1656 0 
L 538 0 
L 538 4863 
z
" transform="scale(0.015625)"/>
      <path id="DejaVuSans-Bold-6f" d="M 2203 2784 
Q 1831 2784 1636 2517 
Q 1441 2250 1441 1747 
Q 1441 1244 1636 976 
Q 1831 709 2203 709 
Q 2569 709 2762 976 
Q 2956 1244 2956 1747 
Q 2956 2250 2762 2517 
Q 2569 2784 2203 2784 
z
M 2203 3584 
Q 3106 3584 3614 3096 
Q 4122 2609 4122 1747 
Q 4122 884 3614 396 
Q 3106 -91 2203 -91 
Q 1297 -91 786 396 
Q 275 884 275 1747 
Q 275 2609 786 3096 
Q 1297 3584 2203 3584 
z
" transform="scale(0.015625)"/>
      <path id="DejaVuSans-Bold-6b" d="M 538 4863 
L 1656 4863 
L 1656 2216 
L 2944 3500 
L 4244 3500 
L 2534 1894 
L 4378 0 
L 3022 0 
L 1656 1459 
L 1656 0 
L 538 0 
L 538 4863 
z
" transform="scale(0.015625)"/>
      <path id="DejaVuSans-Bold-73" d="M 3272 3391 
L 3272 2541 
Q 2913 2691 2578 2766 
Q 2244 2841 1947 2841 
Q 1628 2841 1473 2761 
Q 1319 2681 1319 2516 
Q 1319 2381 1436 2309 
Q 1553 2238 1856 2203 
L 2053 2175 
Q 2913 2066 3209 1816 
Q 3506 1566 3506 1031 
Q 3506 472 3093 190 
Q 2681 -91 1863 -91 
Q 1516 -91 1145 -36 
Q 775 19 384 128 
L 384 978 
Q 719 816 1070 734 
Q 1422 653 1784 653 
Q 2113 653 2278 743 
Q 2444 834 2444 1013 
Q 2444 1163 2330 1236 
Q 2216 1309 1875 1350 
L 1678 1375 
Q 931 1469 631 1722 
Q 331 1975 331 2491 
Q 331 3047 712 3315 
Q 1094 3584 1881 3584 
Q 2191 3584 2531 3537 
Q 2872 3491 3272 3391 
z
" transform="scale(0.015625)"/>
      <path id="DejaVuSans-Bold-42" d="M 2456 2859 
Q 2741 2859 2887 2984 
Q 3034 3109 3034 3353 
Q 3034 3594 2887 3720 
Q 2741 3847 2456 3847 
L 1791 3847 
L 1791 2859 
L 2456 2859 
z
M 2497 819 
Q 2859 819 3042 972 
Q 3225 1125 3225 1434 
Q 3225 1738 3044 1889 
Q 2863 2041 2497 2041 
L 1791 2041 
L 1791 819 
L 2497 819 
z
M 3616 2497 
Q 4003 2384 4215 2081 
Q 4428 1778 4428 1338 
Q 4428 663 3972 331 
Q 3516 0 2584 0 
L 588 0 
L 588 4666 
L 2394 4666 
Q 3366 4666 3802 4372 
Q 4238 4078 4238 3431 
Q 4238 3091 4078 2852 
Q 3919 2613 3616 2497 
z
" transform="scale(0.015625)"/>
      <path id="DejaVuSans-Bold-45" d="M 588 4666 
L 3834 4666 
L 3834 3756 
L 1791 3756 
L 1791 2888 
L 3713 2888 
L 3713 1978 
L 1791 1978 
L 1791 909 
L 3903 909 
L 3903 0 
L 588 0 
L 588 4666 
z
" transform="scale(0.015625)"/>
     </defs>
     <use xlink:href="#DejaVuSans-Bold-53"/>
     <use xlink:href="#DejaVuSans-Bold-74" transform="translate(72.021484 0)"/>
     <use xlink:href="#DejaVuSans-Bold-65" transform="translate(119.824219 0)"/>
     <use xlink:href="#DejaVuSans-Bold-70" transform="translate(187.646484 0)"/>
     <use xlink:href="#DejaVuSans-Bold-20" transform="translate(259.228516 0)"/>
     <use xlink:href="#DejaVuSans-Bold-35" transform="translate(294.042969 0)"/>
     <use xlink:href="#DejaVuSans-Bold-20" transform="translate(363.623047 0)"/>
     <use xlink:href="#DejaVuSans-Bold-2d" transform="translate(398.4375 0)"/>
     <use xlink:href="#DejaVuSans-Bold-20" transform="translate(439.941406 0)"/>
     <use xlink:href="#DejaVuSans-Bold-65" transform="translate(474.755859 0)"/>
     <use xlink:href="#DejaVuSans-Bold-78" transform="translate(542.578125 0)"/>
     <use xlink:href="#DejaVuSans-Bold-74" transform="translate(607.080078 0)"/>
     <use xlink:href="#DejaVuSans-Bold-72" transform="translate(654.882812 0)"/>
     <use xlink:href="#DejaVuSans-Bold-61" transform="translate(704.199219 0)"/>
     <use xlink:href="#DejaVuSans-Bold-63" transform="translate(771.679688 0)"/>
     <use xlink:href="#DejaVuSans-Bold-74" transform="translate(830.957031 0)"/>
     <use xlink:href="#DejaVuSans-Bold-20" transform="translate(878.759766 0)"/>
     <use xlink:href="#DejaVuSans-Bold-4c" transform="translate(913.574219 0)"/>
     <use xlink:href="#DejaVuSans-Bold-44" transform="translate(977.294922 0)"/>
     <use xlink:href="#DejaVuSans-Bold-20" transform="translate(1060.302734 0)"/>
     <use xlink:href="#DejaVuSans-Bold-62" transform="translate(1095.117188 0)"/>
     <use xlink:href="#DejaVuSans-Bold-6c" transform="translate(1166.699219 0)"/>
     <use xlink:href="#DejaVuSans-Bold-6f" transform="translate(1200.976562 0)"/>
     <use xlink:href="#DejaVuSans-Bold-63" transform="translate(1269.677734 0)"/>
     <use xlink:href="#DejaVuSans-Bold-6b" transform="translate(1328.955078 0)"/>
     <use xlink:href="#DejaVuSans-Bold-73" transform="translate(1395.458984 0)"/>
     <use xlink:href="#DejaVuSans-Bold-20" transform="translate(1454.980469 0)"/>
     <use xlink:href="#DejaVuSans-Bold-74" transform="translate(1489.794922 0)"/>
     <use xlink:href="#DejaVuSans-Bold-6f" transform="translate(1537.597656 0)"/>
     <use xlink:href="#DejaVuSans-Bold-20" transform="translate(1606.298828 0)"/>
     <use xlink:href="#DejaVuSans-Bold-42" transform="translate(1641.113281 0)"/>
     <use xlink:href="#DejaVuSans-Bold-45" transform="translate(1717.333984 0)"/>
     <use xlink:href="#DejaVuSans-Bold-44" transform="translate(1785.644531 0)"/>
    </g>
   </g>
   <g id="text_2">
    <!-- breakpoint -->
    <g style="fill: #222222" transform="translate(29.7388 45.7139) scale(0.08 -0.08)">
     <defs>
      <path id="DejaVuSans-Bold-69" d="M 538 3500 
L 1656 3500 
L 1656 0 
L 538 0 
L 538 3500 
z
M 538 4863 
L 1656 4863 
L 1656 3950 
L 538 3950 
L 538 4863 
z
" transform="scale(0.015625)"/>
      <path id="DejaVuSans-Bold-6e" d="M 4056 2131 
L 4056 0 
L 2931 0 
L 2931 347 
L 2931 1631 
Q 2931 2084 2911 2256 
Q 2891 2428 2841 2509 
Q 2775 2619 2662 2680 
Q 2550 2741 2406 2741 
Q 2056 2741 1856 2470 
Q 1656 2200 1656 1722 
L 1656 0 
L 538 0 
L 538 3500 
L 1656 3500 
L 1656 2988 
Q 1909 3294 2193 3439 
Q 2478 3584 2822 3584 
Q 3428 3584 3742 3212 
Q 4056 2841 4056 2131 
z
" transform="scale(0.015625)"/>
     </defs>
     <use xlink:href="#DejaVuSans-Bold-62"/>
     <use xlink:href="#DejaVuSans-Bold-72" transform="translate(71.582031 0)"/>
     <use xlink:href="#DejaVuSans-Bold-65" transform="translate(120.898438 0)"/>
     <use xlink:href="#DejaVuSans-Bold-61" transform="translate(188.720703 0)"/>
     <use xlink:href="#DejaVuSans-Bold-6b" transform="translate(256.201172 0)"/>
     <use xlink:href="#DejaVuSans-Bold-70" transform="translate(322.705078 0)"/>
     <use xlink:href="#DejaVuSans-Bold-6f" transform="translate(394.287109 0)"/>
     <use xlink:href="#DejaVuSans-Bold-69" transform="translate(462.988281 0)"/>
     <use xlink:href="#DejaVuSans-Bold-6e" transform="translate(497.265625 0)"/>
     <use xlink:href="#DejaVuSans-Bold-74" transform="translate(568.457031 0)"/>
    </g>
    <!-- JSON -->
    <g style="fill: #222222" transform="translate(43.271925 53.9427) scale(0.08 -0.08)">
     <defs>
      <path id="DejaVuSans-Bold-4a" d="M 588 4666 
L 1791 4666 
L 1791 453 
Q 1791 -419 1317 -850 
Q 844 -1281 -116 -1281 
L -359 -1281 
L -359 -372 
L -172 -372 
Q 203 -372 395 -162 
Q 588 47 588 453 
L 588 4666 
z
" transform="scale(0.015625)"/>
      <path id="DejaVuSans-Bold-4f" d="M 2719 3878 
Q 2169 3878 1866 3472 
Q 1563 3066 1563 2328 
Q 1563 1594 1866 1187 
Q 2169 781 2719 781 
Q 3272 781 3575 1187 
Q 3878 1594 3878 2328 
Q 3878 3066 3575 3472 
Q 3272 3878 2719 3878 
z
M 2719 4750 
Q 3844 4750 4481 4106 
Q 5119 3463 5119 2328 
Q 5119 1197 4481 553 
Q 3844 -91 2719 -91 
Q 1597 -91 958 553 
Q 319 1197 319 2328 
Q 319 3463 958 4106 
Q 1597 4750 2719 4750 
z
" transform="scale(0.015625)"/>
      <path id="DejaVuSans-Bold-4e" d="M 588 4666 
L 1931 4666 
L 3628 1466 
L 3628 4666 
L 4769 4666 
L 4769 0 
L 3425 0 
L 1728 3200 
L 1728 0 
L 588 0 
L 588 4666 
z
" transform="scale(0.015625)"/>
     </defs>
     <use xlink:href="#DejaVuSans-Bold-4a"/>
     <use xlink:href="#DejaVuSans-Bold-53" transform="translate(37.207031 0)"/>
     <use xlink:href="#DejaVuSans-Bold-4f" transform="translate(109.228516 0)"/>
     <use xlink:href="#DejaVuSans-Bold-4e" transform="translate(194.238281 0)"/>
    </g>
   </g>
   <g id="text_3">
    <!-- block 1 -->
    <g style="fill: #222222" transform="translate(160.4868 77.5584) scale(0.08 -0.08)">
     <defs>
      <path id="DejaVuSans-62" d="M 3116 1747 
Q 3116 2381 2855 2742 
Q 2594 3103 2138 3103 
Q 1681 3103 1420 2742 
Q 1159 2381 1159 1747 
Q 1159 1113 1420 752 
Q 1681 391 2138 391 
Q 2594 391 2855 752 
Q 3116 1113 3116 1747 
z
M 1159 2969 
Q 1341 3281 1617 3432 
Q 1894 3584 2278 3584 
Q 2916 3584 3314 3078 
Q 3713 2572 3713 1747 
Q 3713 922 3314 415 
Q 2916 -91 2278 -91 
Q 1894 -91 1617 61 
Q 1341 213 1159 525 
L 1159 0 
L 581 0 
L 581 4863 
L 1159 4863 
L 1159 2969 
z
" transform="scale(0.015625)"/>
      <path id="DejaVuSans-6c" d="M 603 4863 
L 1178 4863 
L 1178 0 
L 603 0 
L 603 4863 
z
" transform="scale(0.015625)"/>
      <path id="DejaVuSans-6f" d="M 1959 3097 
Q 1497 3097 1228 2736 
Q 959 2375 959 1747 
Q 959 1119 1226 758 
Q 1494 397 1959 397 
Q 2419 397 2687 759 
Q 2956 1122 2956 1747 
Q 2956 2369 2687 2733 
Q 2419 3097 1959 3097 
z
M 1959 3584 
Q 2709 3584 3137 3096 
Q 3566 2609 3566 1747 
Q 3566 888 3137 398 
Q 2709 -91 1959 -91 
Q 1206 -91 779 398 
Q 353 888 353 1747 
Q 353 2609 779 3096 
Q 1206 3584 1959 3584 
z
" transform="scale(0.015625)"/>
      <path id="DejaVuSans-63" d="M 3122 3366 
L 3122 2828 
Q 2878 2963 2633 3030 
Q 2388 3097 2138 3097 
Q 1578 3097 1268 2742 
Q 959 2388 959 1747 
Q 959 1106 1268 751 
Q 1578 397 2138 397 
Q 2388 397 2633 464 
Q 2878 531 3122 666 
L 3122 134 
Q 2881 22 2623 -34 
Q 2366 -91 2075 -91 
Q 1284 -91 818 406 
Q 353 903 353 1747 
Q 353 2603 823 3093 
Q 1294 3584 2113 3584 
Q 2378 3584 2631 3529 
Q 2884 3475 3122 3366 
z
" transform="scale(0.015625)"/>
      <path id="DejaVuSans-6b" d="M 581 4863 
L 1159 4863 
L 1159 1991 
L 2875 3500 
L 3609 3500 
L 1753 1863 
L 3688 0 
L 2938 0 
L 1159 1709 
L 1159 0 
L 581 0 
L 581 4863 
z
" transform="scale(0.015625)"/>
      <path id="DejaVuSans-20" transform="scale(0.015625)"/>
      <path id="DejaVuSans-31" d="M 794 531 
L 1825 531 
L 1825 4091 
L 703 3866 
L 703 4441 
L 1819 4666 
L 2450 4666 
L 2450 531 
L 3481 531 
L 3481 0 
L 794 0 
L 794 531 
z
" transform="scale(0.015625)"/>
     </defs>
     <use xlink:href="#DejaVuSans-62"/>
     <use xlink:href="#DejaVuSans-6c" transform="translate(63.476562 0)"/>
     <use xlink:href="#DejaVuSans-6f" transform="translate(91.259766 0)"/>
     <use xlink:href="#DejaVuSans-63" transform="translate(152.441406 0)"/>
     <use xlink:href="#DejaVuSans-6b" transform="translate(207.421875 0)"/>
     <use xlink:href="#DejaVuSans-20" transform="translate(265.332031 0)"/>
     <use xlink:href="#DejaVuSans-31" transform="translate(297.119141 0)"/>
    </g>
   </g>
   <g id="text_4">
    <!-- block 2 -->
    <g style="fill: #222222" transform="translate(214.7244 77.5584) scale(0.08 -0.08)">
     <defs>
      <path id="DejaVuSans-32" d="M 1228 531 
L 3431 531 
L 3431 0 
L 469 0 
L 469 531 
Q 828 903 1448 1529 
Q 2069 2156 2228 2338 
Q 2531 2678 2651 2914 
Q 2772 3150 2772 3378 
Q 2772 3750 2511 3984 
Q 2250 4219 1831 4219 
Q 1534 4219 1204 4116 
Q 875 4013 500 3803 
L 500 4441 
Q 881 4594 1212 4672 
Q 1544 4750 1819 4750 
Q 2544 4750 2975 4387 
Q 3406 4025 3406 3419 
Q 3406 3131 3298 2873 
Q 3191 2616 2906 2266 
Q 2828 2175 2409 1742 
Q 1991 1309 1228 531 
z
" transform="scale(0.015625)"/>
     </defs>
     <use xlink:href="#DejaVuSans-62"/>
     <use xlink:href="#DejaVuSans-6c" transform="translate(63.476562 0)"/>
     <use xlink:href="#DejaVuSans-6f" transform="translate(91.259766 0)"/>
     <use xlink:href="#DejaVuSans-63" transform="translate(152.441406 0)"/>
     <use xlink:href="#DejaVuSans-6b" transform="translate(207.421875 0)"/>
     <use xlink:href="#DejaVuSans-20" transform="translate(265.332031 0)"/>
     <use xlink:href="#DejaVuSans-32" transform="translate(297.119141 0)"/>
    </g>
   </g>
   <g id="text_5">
    <!-- block 3 -->
    <g style="fill: #222222" transform="translate(276.9972 77.5584) scale(0.08 -0.08)">
     <defs>
      <path id="DejaVuSans-33" d="M 2597 2516 
Q 3050 2419 3304 2112 
Q 3559 1806 3559 1356 
Q 3559 666 3084 287 
Q 2609 -91 1734 -91 
Q 1441 -91 1130 -33 
Q 819 25 488 141 
L 488 750 
Q 750 597 1062 519 
Q 1375 441 1716 441 
Q 2309 441 2620 675 
Q 2931 909 2931 1356 
Q 2931 1769 2642 2001 
Q 2353 2234 1838 2234 
L 1294 2234 
L 1294 2753 
L 1863 2753 
Q 2328 2753 2575 2939 
Q 2822 3125 2822 3475 
Q 2822 3834 2567 4026 
Q 2313 4219 1838 4219 
Q 1578 4219 1281 4162 
Q 984 4106 628 3988 
L 628 4550 
Q 988 4650 1302 4700 
Q 1616 4750 1894 4750 
Q 2613 4750 3031 4423 
Q 3450 4097 3450 3541 
Q 3450 3153 3228 2886 
Q 3006 2619 2597 2516 
z
" transform="scale(0.015625)"/>
     </defs>
     <use xlink:href="#DejaVuSans-62"/>
     <use xlink:href="#DejaVuSans-6c" transform="translate(63.476562 0)"/>
     <use xlink:href="#DejaVuSans-6f" transform="translate(91.259766 0)"/>
     <use xlink:href="#DejaVuSans-63" transform="translate(152.441406 0)"/>
     <use xlink:href="#DejaVuSans-6b" transform="translate(207.421875 0)"/>
     <use xlink:href="#DejaVuSans-20" transform="translate(265.332031 0)"/>
     <use xlink:href="#DejaVuSans-33" transform="translate(297.119141 0)"/>
    </g>
   </g>
   <g id="text_6">
    <!-- block 4 -->
    <g style="fill: #222222" transform="translate(337.2612 77.5584) scale(0.08 -0.08)">
     <defs>
      <path id="DejaVuSans-34" d="M 2419 4116 
L 825 1625 
L 2419 1625 
L 2419 4116 
z
M 2253 4666 
L 3047 4666 
L 3047 1625 
L 3713 1625 
L 3713 1100 
L 3047 1100 
L 3047 0 
L 2419 0 
L 2419 1100 
L 313 1100 
L 313 1709 
L 2253 4666 
z
" transform="scale(0.015625)"/>
     </defs>
     <use xlink:href="#DejaVuSans-62"/>
     <use xlink:href="#DejaVuSans-6c" transform="translate(63.476562 0)"/>
     <use xlink:href="#DejaVuSans-6f" transform="translate(91.259766 0)"/>
     <use xlink:href="#DejaVuSans-63" transform="translate(152.441406 0)"/>
     <use xlink:href="#DejaVuSans-6b" transform="translate(207.421875 0)"/>
     <use xlink:href="#DejaVuSans-20" transform="translate(265.332031 0)"/>
     <use xlink:href="#DejaVuSans-34" transform="translate(297.119141 0)"/>
    </g>
   </g>
   <g id="text_7">
    <!-- BED output -->
    <g style="fill: #222222" transform="translate(229.644425 96.9523) scale(0.08 -0.08)">
     <defs>
      <path id="DejaVuSans-Bold-75" d="M 500 1363 
L 500 3500 
L 1625 3500 
L 1625 3150 
Q 1625 2866 1622 2436 
Q 1619 2006 1619 1863 
Q 1619 1441 1641 1255 
Q 1663 1069 1716 984 
Q 1784 875 1895 815 
Q 2006 756 2150 756 
Q 2500 756 2700 1025 
Q 2900 1294 2900 1772 
L 2900 3500 
L 4019 3500 
L 4019 0 
L 2900 0 
L 2900 506 
Q 2647 200 2364 54 
Q 2081 -91 1741 -91 
Q 1134 -91 817 281 
Q 500 653 500 1363 
z
" transform="scale(0.015625)"/>
     </defs>
     <use xlink:href="#DejaVuSans-Bold-42"/>
     <use xlink:href="#DejaVuSans-Bold-45" transform="translate(76.220703 0)"/>
     <use xlink:href="#DejaVuSans-Bold-44" transform="translate(144.53125 0)"/>
     <use xlink:href="#DejaVuSans-Bold-20" transform="translate(227.539062 0)"/>
     <use xlink:href="#DejaVuSans-Bold-6f" transform="translate(262.353516 0)"/>
     <use xlink:href="#DejaVuSans-Bold-75" transform="translate(331.054688 0)"/>
     <use xlink:href="#DejaVuSans-Bold-74" transform="translate(402.246094 0)"/>
     <use xlink:href="#DejaVuSans-Bold-70" transform="translate(450.048828 0)"/>
     <use xlink:href="#DejaVuSans-Bold-75" transform="translate(521.630859 0)"/>
     <use xlink:href="#DejaVuSans-Bold-74" transform="translate(592.822266 0)"/>
    </g>
   </g>
  </g>
 </g>
 <defs>
  <clipPath id="p1b637ae01e">
   <rect x="2.16" y="2.16" width="401.76" height="110.88"/>
  </clipPath>
 </defs>
</svg>
