<?xml version="1.0" encoding="utf-8" standalone="no"?>
<!DOCTYPE svg PUBLIC "-//W3C//DTD SVG 1.1//EN"
  "http://www.w3.org/Graphics/SVG/1.1/DTD/svg11.dtd">
<svg xmlns:xlink="http://www.w3.org/1999/xlink" width="518.4pt" height="288pt" viewBox="0 0 518.4 288" xmlns="http://www.w3.org/2000/svg" version="1.1">
 <metadata>
  <rdf:RDF xmlns:dc="http://purl.org/dc/elements/1.1/" xmlns:cc="http://creativecommons.org/ns#" xmlns:rdf="http://www.w3.org/1999/02/22-rdf-syntax-ns#">
   <cc:Work>
    <dc:type rdf:resource="http://purl.org/dc/dcmitype/StillImage"/>
    <dc:date>2026-07-12T14:51:59.812314</dc:date>
    <dc:format>image/svg+xml</dc:format>
    <dc:creator>
     <cc:Agent>
      <dc:title>Matplotlib v3.10.8, https://matplotlib.org/</dc:title>
     </cc:Agent>
    </dc:creator>
   </cc:Work>
  </rdf:RDF>
 </metadata>
 <defs>
  <style type="text/css">*{stroke-linejoin: round; stroke-linecap: butt}</style>
 </defs>
 <g id="figure_1">
  <g id="patch_1">
   <path d="M 0 288
L 518.4 288
L 518.4 0
L 0 0
z
" style="fill: #ffffff"/>
  </g>
  <g id="axes_1">
   <g id="patch_2">
    <path d="M 62.208 72.403003
L 508.032 72.403003
L 508.032 34.56
L 62.208 34.56
z
" style="fill: #ffffff"/>
   </g>
   <g id="matplotlib.axis_1">
    <g id="xtick_1">
     <g id="line2d_1">
      <defs>
       <path id="m52b02b7d90" d="M 0 0
L 0 3.5
" style="stroke: #000000; stroke-width: 0.8"/>
      </defs>
      <g>
       <use xlink:href="#m52b02b7d90" x="116.741192" y="72.403003" style="stroke: #000000; stroke-width: 0.8"/>
      </g>
     </g>
    </g>
    <g id="xtick_2">
     <g id="line2d_2">
      <g>
       <use xlink:href="#m52b02b7d90" x="205.905992" y="72.403003" style="stroke: #000000; stroke-width: 0.8"/>
      </g>
     </g>
    </g>
    <g id="xtick_3">
     <g id="line2d_3">
      <g>
       <use xlink:href="#m52b02b7d90" x="295.070792" y="72.403003" style="stroke: #000000; stroke-width: 0.8"/>
      </g>
     </g>
    </g>
    <g id="xtick_4">
     <g id="line2d_4">
      <g>
       <use xlink:href="#m52b02b7d90" x="384.235592" y="72.403003" style="stroke: #000000; stroke-width: 0.8"/>
      </g>
     </g>
    </g>
    <g id="xtick_5">
     <g id="line2d_5">
      <g>
       <use xlink:href="#m52b02b7d90" x="473.400392" y="72.403003" style="stroke: #000000; stroke-width: 0.8"/>
      </g>
     </g>
    </g>
   </g>
   <g id="matplotlib.axis_2">
    <g id="ytick_1">
     <g id="line2d_6">
      <defs>
       <path id="m83ce321b67" d="M 0 0
L -3.5 0
" style="stroke: #000000; stroke-width: 0.8"/>
      </defs>
      <g>
       <use xlink:href="#m83ce321b67" x="62.208" y="59.21529" style="stroke: #000000; stroke-width: 0.8"/>
      </g>
     </g>
     <g id="text_1">
      <!-- ours -->
      <g transform="translate(33.431438 63.014509) scale(0.1 -0.1)">
       <defs>
        <path id="DejaVuSans-6f" d="M 1959 3097
Q 1497 3097 1228 2736
Q 959 2375 959 1747
Q 959 1119 1226 758
Q 1494 397 1959 397
Q 2419 397 2687 759
Q 2956 1122 2956 1747
Q 2956 2369 2687 2733
Q 2419 3097 1959 3097
z
M 1959 3584
Q 2709 3584 3137 3096
Q 3566 2609 3566 1747
Q 3566 888 3137 398
Q 2709 -91 1959 -91
Q 1206 -91 779 398
Q 353 888 353 1747
Q 353 2609 779 3096
Q 1206 3584 1959 3584
z
" transform="scale(0.015625)"/>
        <path id="DejaVuSans-75" d="M 544 1381
L 544 3500
L 1119 3500
L 1119 1403
Q 1119 906 1312 657
Q 1506 409 1894 409
Q 2359 409 2629 706
Q 2900 1003 2900 1516
L 2900 3500
L 3475 3500
L 3475 0
L 2900 0
L 2900 538
Q 2691 219 2414 64
Q 2138 -91 1772 -91
Q 1169 -91 856 284
Q 544 659 544 1381
z
M 1991 3584
L 1991 3584
z
" transform="scale(0.015625)"/>
        <path id="DejaVuSans-72" d="M 2631 2963
Q 2534 3019 2420 3045
Q 2306 3072 2169 3072
Q 1681 3072 1420 2755
Q 1159 2438 1159 1844
L 1159 0
L 581 0
L 581 3500
L 1159 3500
L 1159 2956
Q 1341 3275 1631 3429
Q 1922 3584 2338 3584
Q 2397 3584 2469 3576
Q 2541 3569 2628 3553
L 2631 2963
z
" transform="scale(0.015625)"/>
        <path id="DejaVuSans-73" d="M 2834 3397
L 2834 2853
Q 2591 2978 2328 3040
Q 2066 3103 1784 3103
Q 1356 3103 1142 2972
Q 928 2841 928 2578
Q 928 2378 1081 2264
Q 1234 2150 1697 2047
L 1894 2003
Q 2506 1872 2764 1633
Q 3022 1394 3022 966
Q 3022 478 2636 193
Q 2250 -91 1575 -91
Q 1294 -91 989 -36
Q 684 19 347 128
L 347 722
Q 666 556 975 473
Q 1284 391 1588 391
Q 1994 391 2212 530
Q 2431 669 2431 922
Q 2431 1156 2273 1281
Q 2116 1406 1581 1522
L 1381 1569
Q 847 1681 609 1914
Q 372 2147 372 2553
Q 372 3047 722 3315
Q 1072 3584 1716 3584
Q 2034 3584 2315 3537
Q 2597 3491 2834 3397
z
" transform="scale(0.015625)"/>
       </defs>
       <use xlink:href="#DejaVuSans-6f"/>
       <use xlink:href="#DejaVuSans-75" transform="translate(61.181641 0)"/>
       <use xlink:href="#DejaVuSans-72" transform="translate(124.560547 0)"/>
       <use xlink:href="#DejaVuSans-73" transform="translate(165.673828 0)"/>
      </g>
     </g>
    </g>
    <g id="ytick_2">
     <g id="line2d_7">
      <g>
       <use xlink:href="#m83ce321b67" x="62.208" y="47.747713" style="stroke: #000000; stroke-width: 0.8"/>
      </g>
     </g>
     <g id="text_2">
      <!-- ref -->
      <g transform="translate(41.648625 51.546932) scale(0.1 -0.1)">
       <defs>
        <path id="DejaVuSans-65" d="M 3597 1894
L 3597 1613
L 953 1613
Q 991 1019 1311 708
Q 1631 397 2203 397
Q 2534 397 2845 478
Q 3156 559 3463 722
L 3463 178
Q 3153 47 2828 -22
Q 2503 -91 2169 -91
Q 1331 -91 842 396
Q 353 884 353 1716
Q 353 2575 817 3079
Q 1281 3584 2069 3584
Q 2775 3584 3186 3129
Q 3597 2675 3597 1894
z
M 3022 2063
Q 3016 2534 2758 2815
Q 2500 3097 2075 3097
Q 1594 3097 1305 2825
Q 1016 2553 972 2059
L 3022 2063
z
" transform="scale(0.015625)"/>
        <path id="DejaVuSans-66" d="M 2375 4863
L 2375 4384
L 1825 4384
Q 1516 4384 1395 4259
Q 1275 4134 1275 3809
L 1275 3500
L 2222 3500
L 2222 3053
L 1275 3053
L 1275 0
L 697 0
L 697 3053
L 147 3053
L 147 3500
L 697 3500
L 697 3744
Q 697 4328 969 4595
Q 1241 4863 1831 4863
L 2375 4863
z
" transform="scale(0.015625)"/>
       </defs>
       <use xlink:href="#DejaVuSans-72"/>
       <use xlink:href="#DejaVuSans-65" transform="translate(38.863281 0)"/>
       <use xlink:href="#DejaVuSans-66" transform="translate(100.386719 0)"/>
      </g>
     </g>
    </g>
   </g>
   <g id="EventCollection_1">
    <path d="M 97.94971 42.013925
L 97.94971 53.481502
" clip-path="url(#p465f0e6b9f)" style="fill: none; stroke: #0057b8; stroke-width: 1.9"/>
    <path d="M 141.043058 42.013925
L 141.043058 53.481502
" clip-path="url(#p465f0e6b9f)" style="fill: none; stroke: #0057b8; stroke-width: 1.9"/>
    <path d="M 180.783809 42.013925
L 180.783809 53.481502
" clip-path="url(#p465f0e6b9f)" style="fill: none; stroke: #0057b8; stroke-width: 1.9"/>
    <path d="M 218.001197 42.013925
L 218.001197 53.481502
" clip-path="url(#p465f0e6b9f)" style="fill: none; stroke: #0057b8; stroke-width: 1.9"/>
    <path d="M 258.392851 42.013925
L 258.392851 53.481502
" clip-path="url(#p465f0e6b9f)" style="fill: none; stroke: #0057b8; stroke-width: 1.9"/>
    <path d="M 285.155666 42.013925
L 285.155666 53.481502
" clip-path="url(#p465f0e6b9f)" style="fill: none; stroke: #0057b8; stroke-width: 1.9"/>
    <path d="M 316.537217 42.013925
L 316.537217 53.481502
" clip-path="url(#p465f0e6b9f)" style="fill: none; stroke: #0057b8; stroke-width: 1.9"/>
    <path d="M 351.1822 42.013925
L 351.1822 53.481502
" clip-path="url(#p465f0e6b9f)" style="fill: none; stroke: #0057b8; stroke-width: 1.9"/>
    <path d="M 384.155343 42.013925
L 384.155343 53.481502
" clip-path="url(#p465f0e6b9f)" style="fill: none; stroke: #0057b8; stroke-width: 1.9"/>
    <path d="M 412.340337 42.013925
L 412.340337 53.481502
" clip-path="url(#p465f0e6b9f)" style="fill: none; stroke: #0057b8; stroke-width: 1.9"/>
    <path d="M 446.749033 42.013925
L 446.749033 53.481502
" clip-path="url(#p465f0e6b9f)" style="fill: none; stroke: #0057b8; stroke-width: 1.9"/>
    <path d="M 475.990629 42.013925
L 475.990629 53.481502
" clip-path="url(#p465f0e6b9f)" style="fill: none; stroke: #0057b8; stroke-width: 1.9"/>
   </g>
   <g id="EventCollection_2">
    <path d="M 97.94971 53.481502
L 97.94971 64.949078
" clip-path="url(#p465f0e6b9f)" style="fill: none; stroke: #d62728; stroke-width: 1.9"/>
    <path d="M 141.043058 53.481502
L 141.043058 64.949078
" clip-path="url(#p465f0e6b9f)" style="fill: none; stroke: #d62728; stroke-width: 1.9"/>
    <path d="M 180.783809 53.481502
L 180.783809 64.949078
" clip-path="url(#p465f0e6b9f)" style="fill: none; stroke: #d62728; stroke-width: 1.9"/>
    <path d="M 218.001197 53.481502
L 218.001197 64.949078
" clip-path="url(#p465f0e6b9f)" style="fill: none; stroke: #d62728; stroke-width: 1.9"/>
    <path d="M 258.392851 53.481502
L 258.392851 64.949078
" clip-path="url(#p465f0e6b9f)" style="fill: none; stroke: #d62728; stroke-width: 1.9"/>
    <path d="M 285.155666 53.481502
L 285.155666 64.949078
" clip-path="url(#p465f0e6b9f)" style="fill: none; stroke: #d62728; stroke-width: 1.9"/>
    <path d="M 316.537217 53.481502
L 316.537217 64.949078
" clip-path="url(#p465f0e6b9f)" style="fill: none; stroke: #d62728; stroke-width: 1.9"/>
    <path d="M 351.1822 53.481502
L 351.1822 64.949078
" clip-path="url(#p465f0e6b9f)" style="fill: none; stroke: #d62728; stroke-width: 1.9"/>
    <path d="M 384.155343 53.481502
L 384.155343 64.949078
" clip-path="url(#p465f0e6b9f)" style="fill: none; stroke: #d62728; stroke-width: 1.9"/>
    <path d="M 412.340337 53.481502
L 412.340337 64.949078
" clip-path="url(#p465f0e6b9f)" style="fill: none; stroke: #d62728; stroke-width: 1.9"/>
    <path d="M 446.749033 53.481502
L 446.749033 64.949078
" clip-path="url(#p465f0e6b9f)" style="fill: none; stroke: #d62728; stroke-width: 1.9"/>
    <path d="M 475.990629 53.481502
L 475.990629 64.949078
" clip-path="url(#p465f0e6b9f)" style="fill: none; stroke: #d62728; stroke-width: 1.9"/>
   </g>
   <g id="patch_3">
    <path d="M 62.208 72.403003
L 62.208 34.56
" style="fill: none; stroke: #000000; stroke-width: 0.8; stroke-linejoin: miter; stroke-linecap: square"/>
   </g>
   <g id="patch_4">
    <path d="M 508.032 72.403003
L 508.032 34.56
" style="fill: none; stroke: #000000; stroke-width: 0.8; stroke-linejoin: miter; stroke-linecap: square"/>
   </g>
   <g id="patch_5">
    <path d="M 62.208 72.403003
L 508.032 72.403003
" style="fill: none; stroke: #000000; stroke-width: 0.8; stroke-linejoin: miter; stroke-linecap: square"/>
   </g>
   <g id="patch_6">
    <path d="M 62.208 34.56
L 508.032 34.56
" style="fill: none; stroke: #000000; stroke-width: 0.8; stroke-linejoin: miter; stroke-linecap: square"/>
   </g>
   <g id="text_3">
    <!-- uniform -->
    <g transform="translate(261.85875 28.56) scale(0.12 -0.12)">
     <defs>
      <path id="DejaVuSans-6e" d="M 3513 2113
L 3513 0
L 2938 0
L 2938 2094
Q 2938 2591 2744 2837
Q 2550 3084 2163 3084
Q 1697 3084 1428 2787
Q 1159 2491 1159 1978
L 1159 0
L 581 0
L 581 3500
L 1159 3500
L 1159 2956
Q 1366 3272 1645 3428
Q 1925 3584 2291 3584
Q 2894 3584 3203 3211
Q 3513 2838 3513 2113
z
" transform="scale(0.015625)"/>
      <path id="DejaVuSans-69" d="M 603 3500
L 1178 3500
L 1178 0
L 603 0
L 603 3500
z
M 603 4863
L 1178 4863
L 1178 4134
L 603 4134
L 603 4863
z
" transform="scale(0.015625)"/>
      <path id="DejaVuSans-6d" d="M 3328 2828
Q 3544 3216 3844 3400
Q 4144 3584 4550 3584
Q 5097 3584 5394 3201
Q 5691 2819 5691 2113
L 5691 0
L 5113 0
L 5113 2094
Q 5113 2597 4934 2840
Q 4756 3084 4391 3084
Q 3944 3084 3684 2787
Q 3425 2491 3425 1978
L 3425 0
L 2847 0
L 2847 2094
Q 2847 2600 2669 2842
Q 2491 3084 2119 3084
Q 1678 3084 1418 2786
Q 1159 2488 1159 1978
L 1159 0
L 581 0
L 581 3500
L 1159 3500
L 1159 2956
Q 1356 3278 1631 3431
Q 1906 3584 2284 3584
Q 2666 3584 2933 3390
Q 3200 3197 3328 2828
z
" transform="scale(0.015625)"/>
     </defs>
     <use xlink:href="#DejaVuSans-75"/>
     <use xlink:href="#DejaVuSans-6e" transform="translate(63.378906 0)"/>
     <use xlink:href="#DejaVuSans-69" transform="translate(126.757812 0)"/>
     <use xlink:href="#DejaVuSans-66" transform="translate(154.541016 0)"/>
     <use xlink:href="#DejaVuSans-6f" transform="translate(189.746094 0)"/>
     <use xlink:href="#DejaVuSans-72" transform="translate(250.927734 0)"/>
     <use xlink:href="#DejaVuSans-6d" transform="translate(290.291016 0)"/>
    </g>
   </g>
  </g>
  <g id="axes_2">
   <g id="patch_7">
    <path d="M 62.208 133.708669
L 508.032 133.708669
L 508.032 95.865666
L 62.208 95.865666
z
" style="fill: #ffffff"/>
   </g>
   <g id="matplotlib.axis_3">
    <g id="xtick_6">
     <g id="line2d_8">
      <g>
       <use xlink:href="#m52b02b7d90" x="116.741192" y="133.708669" style="stroke: #000000; stroke-width: 0.8"/>
      </g>
     </g>
    </g>
    <g id="xtick_7">
     <g id="line2d_9">
      <g>
       <use xlink:href="#m52b02b7d90" x="205.905992" y="133.708669" style="stroke: #000000; stroke-width: 0.8"/>
      </g>
     </g>
    </g>
    <g id="xtick_8">
     <g id="line2d_10">
      <g>
       <use xlink:href="#m52b02b7d90" x="295.070792" y="133.708669" style="stroke: #000000; stroke-width: 0.8"/>
      </g>
     </g>
    </g>
    <g id="xtick_9">
     <g id="line2d_11">
      <g>
       <use xlink:href="#m52b02b7d90" x="384.235592" y="133.708669" style="stroke: #000000; stroke-width: 0.8"/>
      </g>
     </g>
    </g>
    <g id="xtick_10">
     <g id="line2d_12">
      <g>
       <use xlink:href="#m52b02b7d90" x="473.400392" y="133.708669" style="stroke: #000000; stroke-width: 0.8"/>
      </g>
     </g>
    </g>
   </g>
   <g id="matplotlib.axis_4">
    <g id="ytick_3">
     <g id="line2d_13">
      <g>
       <use xlink:href="#m83ce321b67" x="62.208" y="120.520956" style="stroke: #000000; stroke-width: 0.8"/>
      </g>
     </g>
     <g id="text_4">
      <!-- ours -->
      <g transform="translate(33.431438 124.320174) scale(0.1 -0.1)">
       <use xlink:href="#DejaVuSans-6f"/>
       <use xlink:href="#DejaVuSans-75" transform="translate(61.181641 0)"/>
       <use xlink:href="#DejaVuSans-72" transform="translate(124.560547 0)"/>
       <use xlink:href="#DejaVuSans-73" transform="translate(165.673828 0)"/>
      </g>
     </g>
    </g>
    <g id="ytick_4">
     <g id="line2d_14">
      <g>
       <use xlink:href="#m83ce321b67" x="62.208" y="109.053379" style="stroke: #000000; stroke-width: 0.8"/>
      </g>
     </g>
     <g id="text_5">
      <!-- ref -->
      <g transform="translate(41.648625 112.852598) scale(0.1 -0.1)">
       <use xlink:href="#DejaVuSans-72"/>
       <use xlink:href="#DejaVuSans-65" transform="translate(38.863281 0)"/>
       <use xlink:href="#DejaVuSans-66" transform="translate(100.386719 0)"/>
      </g>
     </g>
    </g>
   </g>
   <g id="EventCollection_3">
    <path d="M 68.81957 103.31959
L 68.81957 114.787167
" clip-path="url(#pb3e97eb25b)" style="fill: none; stroke: #0057b8; stroke-width: 1.9"/>
    <path d="M 119.647964 103.31959
L 119.647964 114.787167
" clip-path="url(#pb3e97eb25b)" style="fill: none; stroke: #0057b8; stroke-width: 1.9"/>
    <path d="M 162.839393 103.31959
L 162.839393 114.787167
" clip-path="url(#pb3e97eb25b)" style="fill: none; stroke: #0057b8; stroke-width: 1.9"/>
    <path d="M 202.147695 103.31959
L 202.147695 114.787167
" clip-path="url(#pb3e97eb25b)" style="fill: none; stroke: #0057b8; stroke-width: 1.9"/>
    <path d="M 243.480038 103.31959
L 243.480038 114.787167
" clip-path="url(#pb3e97eb25b)" style="fill: none; stroke: #0057b8; stroke-width: 1.9"/>
    <path d="M 272.712718 103.31959
L 272.712718 114.787167
" clip-path="url(#pb3e97eb25b)" style="fill: none; stroke: #0057b8; stroke-width: 1.9"/>
    <path d="M 302.556177 103.31959
L 302.556177 114.787167
" clip-path="url(#pb3e97eb25b)" style="fill: none; stroke: #0057b8; stroke-width: 1.9"/>
    <path d="M 337.571194 103.31959
L 337.571194 114.787167
" clip-path="url(#pb3e97eb25b)" style="fill: none; stroke: #0057b8; stroke-width: 1.9"/>
    <path d="M 367.789144 103.31959
L 367.789144 114.787167
" clip-path="url(#pb3e97eb25b)" style="fill: none; stroke: #0057b8; stroke-width: 1.9"/>
    <path d="M 399.723517 103.31959
L 399.723517 114.787167
" clip-path="url(#pb3e97eb25b)" style="fill: none; stroke: #0057b8; stroke-width: 1.9"/>
    <path d="M 430.842033 103.31959
L 430.842033 114.787167
" clip-path="url(#pb3e97eb25b)" style="fill: none; stroke: #0057b8; stroke-width: 1.9"/>
    <path d="M 462.00513 103.31959
L 462.00513 114.787167
" clip-path="url(#pb3e97eb25b)" style="fill: none; stroke: #0057b8; stroke-width: 1.9"/>
   </g>
   <g id="EventCollection_4">
    <path d="M 68.81957 114.787167
L 68.81957 126.254744
" clip-path="url(#pb3e97eb25b)" style="fill: none; stroke: #d62728; stroke-width: 1.9"/>
    <path d="M 119.647964 114.787167
L 119.647964 126.254744
" clip-path="url(#pb3e97eb25b)" style="fill: none; stroke: #d62728; stroke-width: 1.9"/>
    <path d="M 162.839393 114.787167
L 162.839393 126.254744
" clip-path="url(#pb3e97eb25b)" style="fill: none; stroke: #d62728; stroke-width: 1.9"/>
    <path d="M 202.147695 114.787167
L 202.147695 126.254744
" clip-path="url(#pb3e97eb25b)" style="fill: none; stroke: #d62728; stroke-width: 1.9"/>
    <path d="M 243.480038 114.787167
L 243.480038 126.254744
" clip-path="url(#pb3e97eb25b)" style="fill: none; stroke: #d62728; stroke-width: 1.9"/>
    <path d="M 272.712718 114.787167
L 272.712718 126.254744
" clip-path="url(#pb3e97eb25b)" style="fill: none; stroke: #d62728; stroke-width: 1.9"/>
    <path d="M 302.556177 114.787167
L 302.556177 126.254744
" clip-path="url(#pb3e97eb25b)" style="fill: none; stroke: #d62728; stroke-width: 1.9"/>
    <path d="M 337.571194 114.787167
L 337.571194 126.254744
" clip-path="url(#pb3e97eb25b)" style="fill: none; stroke: #d62728; stroke-width: 1.9"/>
    <path d="M 367.789144 114.787167
L 367.789144 126.254744
" clip-path="url(#pb3e97eb25b)" style="fill: none; stroke: #d62728; stroke-width: 1.9"/>
    <path d="M 399.723517 114.787167
L 399.723517 126.254744
" clip-path="url(#pb3e97eb25b)" style="fill: none; stroke: #d62728; stroke-width: 1.9"/>
    <path d="M 430.842033 114.787167
L 430.842033 126.254744
" clip-path="url(#pb3e97eb25b)" style="fill: none; stroke: #d62728; stroke-width: 1.9"/>
    <path d="M 462.00513 114.787167
L 462.00513 126.254744
" clip-path="url(#pb3e97eb25b)" style="fill: none; stroke: #d62728; stroke-width: 1.9"/>
   </g>
   <g id="patch_8">
    <path d="M 62.208 133.708669
L 62.208 95.865666
" style="fill: none; stroke: #000000; stroke-width: 0.8; stroke-linejoin: miter; stroke-linecap: square"/>
   </g>
   <g id="patch_9">
    <path d="M 508.032 133.708669
L 508.032 95.865666
" style="fill: none; stroke: #000000; stroke-width: 0.8; stroke-linejoin: miter; stroke-linecap: square"/>
   </g>
   <g id="patch_10">
    <path d="M 62.208 133.708669
L 508.032 133.708669
" style="fill: none; stroke: #000000; stroke-width: 0.8; stroke-linejoin: miter; stroke-linecap: square"/>
   </g>
   <g id="patch_11">
    <path d="M 62.208 95.865666
L 508.032 95.865666
" style="fill: none; stroke: #000000; stroke-width: 0.8; stroke-linejoin: miter; stroke-linecap: square"/>
   </g>
   <g id="text_6">
    <!-- uniform_ls -->
    <g transform="translate(254.06625 89.865666) scale(0.12 -0.12)">
     <defs>
      <path id="DejaVuSans-5f" d="M 3263 -1063
L 3263 -1509
L -63 -1509
L -63 -1063
L 3263 -1063
z
" transform="scale(0.015625)"/>
      <path id="DejaVuSans-6c" d="M 603 4863
L 1178 4863
L 1178 0
L 603 0
L 603 4863
z
" transform="scale(0.015625)"/>
     </defs>
     <use xlink:href="#DejaVuSans-75"/>
     <use xlink:href="#DejaVuSans-6e" transform="translate(63.378906 0)"/>
     <use xlink:href="#DejaVuSans-69" transform="translate(126.757812 0)"/>
     <use xlink:href="#DejaVuSans-66" transform="translate(154.541016 0)"/>
     <use xlink:href="#DejaVuSans-6f" transform="translate(189.746094 0)"/>
     <use xlink:href="#DejaVuSans-72" transform="translate(250.927734 0)"/>
     <use xlink:href="#DejaVuSans-6d" transform="translate(290.291016 0)"/>
     <use xlink:href="#DejaVuSans-5f" transform="translate(387.703125 0)"/>
     <use xlink:href="#DejaVuSans-6c" transform="translate(437.703125 0)"/>
     <use xlink:href="#DejaVuSans-73" transform="translate(465.486328 0)"/>
    </g>
   </g>
  </g>
  <g id="axes_3">
   <g id="patch_12">
    <path d="M 62.208 195.014334
L 508.032 195.014334
L 508.032 157.171331
L 62.208 157.171331
z
" style="fill: #ffffff"/>
   </g>
   <g id="matplotlib.axis_5">
    <g id="xtick_11">
     <g id="line2d_15">
      <g>
       <use xlink:href="#m52b02b7d90" x="116.741192" y="195.014334" style="stroke: #000000; stroke-width: 0.8"/>
      </g>
     </g>
    </g>
    <g id="xtick_12">
     <g id="line2d_16">
      <g>
       <use xlink:href="#m52b02b7d90" x="205.905992" y="195.014334" style="stroke: #000000; stroke-width: 0.8"/>
      </g>
     </g>
    </g>
    <g id="xtick_13">
     <g id="line2d_17">
      <g>
       <use xlink:href="#m52b02b7d90" x="295.070792" y="195.014334" style="stroke: #000000; stroke-width: 0.8"/>
      </g>
     </g>
    </g>
    <g id="xtick_14">
     <g id="line2d_18">
      <g>
       <use xlink:href="#m52b02b7d90" x="384.235592" y="195.014334" style="stroke: #000000; stroke-width: 0.8"/>
      </g>
     </g>
    </g>
    <g id="xtick_15">
     <g id="line2d_19">
      <g>
       <use xlink:href="#m52b02b7d90" x="473.400392" y="195.014334" style="stroke: #000000; stroke-width: 0.8"/>
      </g>
     </g>
    </g>
   </g>
   <g id="matplotlib.axis_6">
    <g id="ytick_5">
     <g id="line2d_20">
      <g>
       <use xlink:href="#m83ce321b67" x="62.208" y="181.826621" style="stroke: #000000; stroke-width: 0.8"/>
      </g>
     </g>
     <g id="text_7">
      <!-- ours -->
      <g transform="translate(33.431438 185.62584) scale(0.1 -0.1)">
       <use xlink:href="#DejaVuSans-6f"/>
       <use xlink:href="#DejaVuSans-75" transform="translate(61.181641 0)"/>
       <use xlink:href="#DejaVuSans-72" transform="translate(124.560547 0)"/>
       <use xlink:href="#DejaVuSans-73" transform="translate(165.673828 0)"/>
      </g>
     </g>
    </g>
    <g id="ytick_6">
     <g id="line2d_21">
      <g>
       <use xlink:href="#m83ce321b67" x="62.208" y="170.359044" style="stroke: #000000; stroke-width: 0.8"/>
      </g>
     </g>
     <g id="text_8">
      <!-- ref -->
      <g transform="translate(41.648625 174.158263) scale(0.1 -0.1)">
       <use xlink:href="#DejaVuSans-72"/>
       <use xlink:href="#DejaVuSans-65" transform="translate(38.863281 0)"/>
       <use xlink:href="#DejaVuSans-66" transform="translate(100.386719 0)"/>
      </g>
     </g>
    </g>
   </g>
   <g id="EventCollection_5">
    <path d="M 97.704507 164.625256
L 97.704507 176.092833
" clip-path="url(#p7c972c9533)" style="fill: none; stroke: #0057b8; stroke-width: 1.9"/>
    <path d="M 148.541818 164.625256
L 148.541818 176.092833
" clip-path="url(#p7c972c9533)" style="fill: none; stroke: #0057b8; stroke-width: 1.9"/>
    <path d="M 194.247694 164.625256
L 194.247694 176.092833
" clip-path="url(#p7c972c9533)" style="fill: none; stroke: #0057b8; stroke-width: 1.9"/>
    <path d="M 249.841947 164.625256
L 249.841947 176.092833
" clip-path="url(#p7c972c9533)" style="fill: none; stroke: #0057b8; stroke-width: 1.9"/>
    <path d="M 290.411931 164.625256
L 290.411931 176.092833
" clip-path="url(#p7c972c9533)" style="fill: none; stroke: #0057b8; stroke-width: 1.9"/>
    <path d="M 304.482136 164.625256
L 304.482136 176.092833
" clip-path="url(#p7c972c9533)" style="fill: none; stroke: #0057b8; stroke-width: 1.9"/>
    <path d="M 336.670629 164.625256
L 336.670629 176.092833
" clip-path="url(#p7c972c9533)" style="fill: none; stroke: #0057b8; stroke-width: 1.9"/>
    <path d="M 351.636941 164.625256
L 351.636941 176.092833
" clip-path="url(#p7c972c9533)" style="fill: none; stroke: #0057b8; stroke-width: 1.9"/>
    <path d="M 378.578085 164.625256
L 378.578085 176.092833
" clip-path="url(#p7c972c9533)" style="fill: none; stroke: #0057b8; stroke-width: 1.9"/>
    <path d="M 402.670414 164.625256
L 402.670414 176.092833
" clip-path="url(#p7c972c9533)" style="fill: none; stroke: #0057b8; stroke-width: 1.9"/>
    <path d="M 430.387292 164.625256
L 430.387292 176.092833
" clip-path="url(#p7c972c9533)" style="fill: none; stroke: #0057b8; stroke-width: 1.9"/>
    <path d="M 447.645139 164.625256
L 447.645139 176.092833
" clip-path="url(#p7c972c9533)" style="fill: none; stroke: #0057b8; stroke-width: 1.9"/>
   </g>
   <g id="EventCollection_6">
    <path d="M 97.704507 176.092833
L 97.704507 187.56041
" clip-path="url(#p7c972c9533)" style="fill: none; stroke: #d62728; stroke-width: 1.9"/>
    <path d="M 148.541818 176.092833
L 148.541818 187.56041
" clip-path="url(#p7c972c9533)" style="fill: none; stroke: #d62728; stroke-width: 1.9"/>
    <path d="M 194.247694 176.092833
L 194.247694 187.56041
" clip-path="url(#p7c972c9533)" style="fill: none; stroke: #d62728; stroke-width: 1.9"/>
    <path d="M 249.841947 176.092833
L 249.841947 187.56041
" clip-path="url(#p7c972c9533)" style="fill: none; stroke: #d62728; stroke-width: 1.9"/>
    <path d="M 290.411931 176.092833
L 290.411931 187.56041
" clip-path="url(#p7c972c9533)" style="fill: none; stroke: #d62728; stroke-width: 1.9"/>
    <path d="M 304.482136 176.092833
L 304.482136 187.56041
" clip-path="url(#p7c972c9533)" style="fill: none; stroke: #d62728; stroke-width: 1.9"/>
    <path d="M 336.670629 176.092833
L 336.670629 187.56041
" clip-path="url(#p7c972c9533)" style="fill: none; stroke: #d62728; stroke-width: 1.9"/>
    <path d="M 351.636941 176.092833
L 351.636941 187.56041
" clip-path="url(#p7c972c9533)" style="fill: none; stroke: #d62728; stroke-width: 1.9"/>
    <path d="M 378.578085 176.092833
L 378.578085 187.56041
" clip-path="url(#p7c972c9533)" style="fill: none; stroke: #d62728; stroke-width: 1.9"/>
    <path d="M 402.670414 176.092833
L 402.670414 187.56041
" clip-path="url(#p7c972c9533)" style="fill: none; stroke: #d62728; stroke-width: 1.9"/>
    <path d="M 430.387292 176.092833
L 430.387292 187.56041
" clip-path="url(#p7c972c9533)" style="fill: none; stroke: #d62728; stroke-width: 1.9"/>
    <path d="M 447.645139 176.092833
L 447.645139 187.56041
" clip-path="url(#p7c972c9533)" style="fill: none; stroke: #d62728; stroke-width: 1.9"/>
   </g>
   <g id="patch_13">
    <path d="M 62.208 195.014334
L 62.208 157.171331
" style="fill: none; stroke: #000000; stroke-width: 0.8; stroke-linejoin: miter; stroke-linecap: square"/>
   </g>
   <g id="patch_14">
    <path d="M 508.032 195.014334
L 508.032 157.171331
" style="fill: none; stroke: #000000; stroke-width: 0.8; stroke-linejoin: miter; stroke-linecap: square"/>
   </g>
   <g id="patch_15">
    <path d="M 62.208 195.014334
L 508.032 195.014334
" style="fill: none; stroke: #000000; stroke-width: 0.8; stroke-linejoin: miter; stroke-linecap: square"/>
   </g>
   <g id="patch_16">
    <path d="M 62.208 157.171331
L 508.032 157.171331
" style="fill: none; stroke: #000000; stroke-width: 0.8; stroke-linejoin: miter; stroke-linecap: square"/>
   </g>
   <g id="text_9">
    <!-- fourier -->
    <g transform="translate(265.242188 151.171331) scale(0.12 -0.12)">
     <use xlink:href="#DejaVuSans-66"/>
     <use xlink:href="#DejaVuSans-6f" transform="translate(35.205078 0)"/>
     <use xlink:href="#DejaVuSans-75" transform="translate(96.386719 0)"/>
     <use xlink:href="#DejaVuSans-72" transform="translate(159.765625 0)"/>
     <use xlink:href="#DejaVuSans-69" transform="translate(200.878906 0)"/>
     <use xlink:href="#DejaVuSans-65" transform="translate(228.662109 0)"/>
     <use xlink:href="#DejaVuSans-72" transform="translate(290.185547 0)"/>
    </g>
   </g>
  </g>
  <g id="axes_4">
   <g id="patch_17">
    <path d="M 62.208 256.32
L 508.032 256.32
L 508.032 218.476997
L 62.208 218.476997
z
" style="fill: #ffffff"/>
   </g>
   <g id="matplotlib.axis_7">
    <g id="xtick_16">
     <g id="line2d_22">
      <g>
       <use xlink:href="#m52b02b7d90" x="116.741192" y="256.32" style="stroke: #000000; stroke-width: 0.8"/>
      </g>
     </g>
     <g id="text_10">
      <!-- 39,980,000 -->
      <g transform="translate(88.113067 270.918438) scale(0.1 -0.1)">
       <defs>
        <path id="DejaVuSans-33" d="M 2597 2516
Q 3050 2419 3304 2112
Q 3559 1806 3559 1356
Q 3559 666 3084 287
Q 2609 -91 1734 -91
Q 1441 -91 1130 -33
Q 819 25 488 141
L 488 750
Q 750 597 1062 519
Q 1375 441 1716 441
Q 2309 441 2620 675
Q 2931 909 2931 1356
Q 2931 1769 2642 2001
Q 2353 2234 1838 2234
L 1294 2234
L 1294 2753
L 1863 2753
Q 2328 2753 2575 2939
Q 2822 3125 2822 3475
Q 2822 3834 2567 4026
Q 2313 4219 1838 4219
Q 1578 4219 1281 4162
Q 984 4106 628 3988
L 628 4550
Q 988 4650 1302 4700
Q 1616 4750 1894 4750
Q 2613 4750 3031 4423
Q 3450 4097 3450 3541
Q 3450 3153 3228 2886
Q 3006 2619 2597 2516
z
" transform="scale(0.015625)"/>
        <path id="DejaVuSans-39" d="M 703 97
L 703 672
Q 941 559 1184 500
Q 1428 441 1663 441
Q 2288 441 2617 861
Q 2947 1281 2994 2138
Q 2813 1869 2534 1725
Q 2256 1581 1919 1581
Q 1219 1581 811 2004
Q 403 2428 403 3163
Q 403 3881 828 4315
Q 1253 4750 1959 4750
Q 2769 4750 3195 4129
Q 3622 3509 3622 2328
Q 3622 1225 3098 567
Q 2575 -91 1691 -91
Q 1453 -91 1209 -44
Q 966 3 703 97
z
M 1959 2075
Q 2384 2075 2632 2365
Q 2881 2656 2881 3163
Q 2881 3666 2632 3958
Q 2384 4250 1959 4250
Q 1534 4250 1286 3958
Q 1038 3666 1038 3163
Q 1038 2656 1286 2365
Q 1534 2075 1959 2075
z
" transform="scale(0.015625)"/>
        <path id="DejaVuSans-2c" d="M 750 794
L 1409 794
L 1409 256
L 897 -744
L 494 -744
L 750 256
L 750 794
z
" transform="scale(0.015625)"/>
        <path id="DejaVuSans-38" d="M 2034 2216
Q 1584 2216 1326 1975
Q 1069 1734 1069 1313
Q 1069 891 1326 650
Q 1584 409 2034 409
Q 2484 409 2743 651
Q 3003 894 3003 1313
Q 3003 1734 2745 1975
Q 2488 2216 2034 2216
z
M 1403 2484
Q 997 2584 770 2862
Q 544 3141 544 3541
Q 544 4100 942 4425
Q 1341 4750 2034 4750
Q 2731 4750 3128 4425
Q 3525 4100 3525 3541
Q 3525 3141 3298 2862
Q 3072 2584 2669 2484
Q 3125 2378 3379 2068
Q 3634 1759 3634 1313
Q 3634 634 3220 271
Q 2806 -91 2034 -91
Q 1263 -91 848 271
Q 434 634 434 1313
Q 434 1759 690 2068
Q 947 2378 1403 2484
z
M 1172 3481
Q 1172 3119 1398 2916
Q 1625 2713 2034 2713
Q 2441 2713 2670 2916
Q 2900 3119 2900 3481
Q 2900 3844 2670 4047
Q 2441 4250 2034 4250
Q 1625 4250 1398 4047
Q 1172 3844 1172 3481
z
" transform="scale(0.015625)"/>
        <path id="DejaVuSans-30" d="M 2034 4250
Q 1547 4250 1301 3770
Q 1056 3291 1056 2328
Q 1056 1369 1301 889
Q 1547 409 2034 409
Q 2525 409 2770 889
Q 3016 1369 3016 2328
Q 3016 3291 2770 3770
Q 2525 4250 2034 4250
z
M 2034 4750
Q 2819 4750 3233 4129
Q 3647 3509 3647 2328
Q 3647 1150 3233 529
Q 2819 -91 2034 -91
Q 1250 -91 836 529
Q 422 1150 422 2328
Q 422 3509 836 4129
Q 1250 4750 2034 4750
z
" transform="scale(0.015625)"/>
       </defs>
       <use xlink:href="#DejaVuSans-33"/>
       <use xlink:href="#DejaVuSans-39" transform="translate(63.623047 0)"/>
       <use xlink:href="#DejaVuSans-2c" transform="translate(127.246094 0)"/>
       <use xlink:href="#DejaVuSans-39" transform="translate(159.033203 0)"/>
       <use xlink:href="#DejaVuSans-38" transform="translate(222.65625 0)"/>
       <use xlink:href="#DejaVuSans-30" transform="translate(286.279297 0)"/>
       <use xlink:href="#DejaVuSans-2c" transform="translate(349.902344 0)"/>
       <use xlink:href="#DejaVuSans-30" transform="translate(381.689453 0)"/>
       <use xlink:href="#DejaVuSans-30" transform="translate(445.3125 0)"/>
       <use xlink:href="#DejaVuSans-30" transform="translate(508.935547 0)"/>
      </g>
     </g>
    </g>
    <g id="xtick_17">
     <g id="line2d_23">
      <g>
       <use xlink:href="#m52b02b7d90" x="205.905992" y="256.32" style="stroke: #000000; stroke-width: 0.8"/>
      </g>
     </g>
     <g id="text_11">
      <!-- 40,000,000 -->
      <g transform="translate(177.277867 270.918438) scale(0.1 -0.1)">
       <defs>
        <path id="DejaVuSans-34" d="M 2419 4116
L 825 1625
L 2419 1625
L 2419 4116
z
M 2253 4666
L 3047 4666
L 3047 1625
L 3713 1625
L 3713 1100
L 3047 1100
L 3047 0
L 2419 0
L 2419 1100
L 313 1100
L 313 1709
L 2253 4666
z
" transform="scale(0.015625)"/>
       </defs>
       <use xlink:href="#DejaVuSans-34"/>
       <use xlink:href="#DejaVuSans-30" transform="translate(63.623047 0)"/>
       <use xlink:href="#DejaVuSans-2c" transform="translate(127.246094 0)"/>
       <use xlink:href="#DejaVuSans-30" transform="translate(159.033203 0)"/>
       <use xlink:href="#DejaVuSans-30" transform="translate(222.65625 0)"/>
       <use xlink:href="#DejaVuSans-30" transform="translate(286.279297 0)"/>
       <use xlink:href="#DejaVuSans-2c" transform="translate(349.902344 0)"/>
       <use xlink:href="#DejaVuSans-30" transform="translate(381.689453 0)"/>
       <use xlink:href="#DejaVuSans-30" transform="translate(445.3125 0)"/>
       <use xlink:href="#DejaVuSans-30" transform="translate(508.935547 0)"/>
      </g>
     </g>
    </g>
    <g id="xtick_18">
     <g id="line2d_24">
      <g>
       <use xlink:href="#m52b02b7d90" x="295.070792" y="256.32" style="stroke: #000000; stroke-width: 0.8"/>
      </g>
     </g>
     <g id="text_12">
      <!-- 40,020,000 -->
      <g transform="translate(266.442667 270.918438) scale(0.1 -0.1)">
       <defs>
        <path id="DejaVuSans-32" d="M 1228 531
L 3431 531
L 3431 0
L 469 0
L 469 531
Q 828 903 1448 1529
Q 2069 2156 2228 2338
Q 2531 2678 2651 2914
Q 2772 3150 2772 3378
Q 2772 3750 2511 3984
Q 2250 4219 1831 4219
Q 1534 4219 1204 4116
Q 875 4013 500 3803
L 500 4441
Q 881 4594 1212 4672
Q 1544 4750 1819 4750
Q 2544 4750 2975 4387
Q 3406 4025 3406 3419
Q 3406 3131 3298 2873
Q 3191 2616 2906 2266
Q 2828 2175 2409 1742
Q 1991 1309 1228 531
z
" transform="scale(0.015625)"/>
       </defs>
       <use xlink:href="#DejaVuSans-34"/>
       <use xlink:href="#DejaVuSans-30" transform="translate(63.623047 0)"/>
       <use xlink:href="#DejaVuSans-2c" transform="translate(127.246094 0)"/>
       <use xlink:href="#DejaVuSans-30" transform="translate(159.033203 0)"/>
       <use xlink:href="#DejaVuSans-32" transform="translate(222.65625 0)"/>
       <use xlink:href="#DejaVuSans-30" transform="translate(286.279297 0)"/>
       <use xlink:href="#DejaVuSans-2c" transform="translate(349.902344 0)"/>
       <use xlink:href="#DejaVuSans-30" transform="translate(381.689453 0)"/>
       <use xlink:href="#DejaVuSans-30" transform="translate(445.3125 0)"/>
       <use xlink:href="#DejaVuSans-30" transform="translate(508.935547 0)"/>
      </g>
     </g>
    </g>
    <g id="xtick_19">
     <g id="line2d_25">
      <g>
       <use xlink:href="#m52b02b7d90" x="384.235592" y="256.32" style="stroke: #000000; stroke-width: 0.8"/>
      </g>
     </g>
     <g id="text_13">
      <!-- 40,040,000 -->
      <g transform="translate(355.607467 270.918438) scale(0.1 -0.1)">
       <use xlink:href="#DejaVuSans-34"/>
       <use xlink:href="#DejaVuSans-30" transform="translate(63.623047 0)"/>
       <use xlink:href="#DejaVuSans-2c" transform="translate(127.246094 0)"/>
       <use xlink:href="#DejaVuSans-30" transform="translate(159.033203 0)"/>
       <use xlink:href="#DejaVuSans-34" transform="translate(222.65625 0)"/>
       <use xlink:href="#DejaVuSans-30" transform="translate(286.279297 0)"/>
       <use xlink:href="#DejaVuSans-2c" transform="translate(349.902344 0)"/>
       <use xlink:href="#DejaVuSans-30" transform="translate(381.689453 0)"/>
       <use xlink:href="#DejaVuSans-30" transform="translate(445.3125 0)"/>
       <use xlink:href="#DejaVuSans-30" transform="translate(508.935547 0)"/>
      </g>
     </g>
    </g>
    <g id="xtick_20">
     <g id="line2d_26">
      <g>
       <use xlink:href="#m52b02b7d90" x="473.400392" y="256.32" style="stroke: #000000; stroke-width: 0.8"/>
      </g>
     </g>
     <g id="text_14">
      <!-- 40,060,000 -->
      <g transform="translate(444.772267 270.918438) scale(0.1 -0.1)">
       <defs>
        <path id="DejaVuSans-36" d="M 2113 2584
Q 1688 2584 1439 2293
Q 1191 2003 1191 1497
Q 1191 994 1439 701
Q 1688 409 2113 409
Q 2538 409 2786 701
Q 3034 994 3034 1497
Q 3034 2003 2786 2293
Q 2538 2584 2113 2584
z
M 3366 4563
L 3366 3988
Q 3128 4100 2886 4159
Q 2644 4219 2406 4219
Q 1781 4219 1451 3797
Q 1122 3375 1075 2522
Q 1259 2794 1537 2939
Q 1816 3084 2150 3084
Q 2853 3084 3261 2657
Q 3669 2231 3669 1497
Q 3669 778 3244 343
Q 2819 -91 2113 -91
Q 1303 -91 875 529
Q 447 1150 447 2328
Q 447 3434 972 4092
Q 1497 4750 2381 4750
Q 2619 4750 2861 4703
Q 3103 4656 3366 4563
z
" transform="scale(0.015625)"/>
       </defs>
       <use xlink:href="#DejaVuSans-34"/>
       <use xlink:href="#DejaVuSans-30" transform="translate(63.623047 0)"/>
       <use xlink:href="#DejaVuSans-2c" transform="translate(127.246094 0)"/>
       <use xlink:href="#DejaVuSans-30" transform="translate(159.033203 0)"/>
       <use xlink:href="#DejaVuSans-36" transform="translate(222.65625 0)"/>
       <use xlink:href="#DejaVuSans-30" transform="translate(286.279297 0)"/>
       <use xlink:href="#DejaVuSans-2c" transform="translate(349.902344 0)"/>
       <use xlink:href="#DejaVuSans-30" transform="translate(381.689453 0)"/>
       <use xlink:href="#DejaVuSans-30" transform="translate(445.3125 0)"/>
       <use xlink:href="#DejaVuSans-30" transform="translate(508.935547 0)"/>
      </g>
     </g>
    </g>
    <g id="text_15">
     <!-- chr2 (hg19) -->
     <g transform="translate(255.769219 284.596563) scale(0.1 -0.1)">
      <defs>
       <path id="DejaVuSans-63" d="M 3122 3366
L 3122 2828
Q 2878 2963 2633 3030
Q 2388 3097 2138 3097
Q 1578 3097 1268 2742
Q 959 2388 959 1747
Q 959 1106 1268 751
Q 1578 397 2138 397
Q 2388 397 2633 464
Q 2878 531 3122 666
L 3122 134
Q 2881 22 2623 -34
Q 2366 -91 2075 -91
Q 1284 -91 818 406
Q 353 903 353 1747
Q 353 2603 823 3093
Q 1294 3584 2113 3584
Q 2378 3584 2631 3529
Q 2884 3475 3122 3366
z
" transform="scale(0.015625)"/>
       <path id="DejaVuSans-68" d="M 3513 2113
L 3513 0
L 2938 0
L 2938 2094
Q 2938 2591 2744 2837
Q 2550 3084 2163 3084
Q 1697 3084 1428 2787
Q 1159 2491 1159 1978
L 1159 0
L 581 0
L 581 4863
L 1159 4863
L 1159 2956
Q 1366 3272 1645 3428
Q 1925 3584 2291 3584
Q 2894 3584 3203 3211
Q 3513 2838 3513 2113
z
" transform="scale(0.015625)"/>
       <path id="DejaVuSans-20" transform="scale(0.015625)"/>
       <path id="DejaVuSans-28" d="M 1984 4856
Q 1566 4138 1362 3434
Q 1159 2731 1159 2009
Q 1159 1288 1364 580
Q 1569 -128 1984 -844
L 1484 -844
Q 1016 -109 783 600
Q 550 1309 550 2009
Q 550 2706 781 3412
Q 1013 4119 1484 4856
L 1984 4856
z
" transform="scale(0.015625)"/>
       <path id="DejaVuSans-67" d="M 2906 1791
Q 2906 2416 2648 2759
Q 2391 3103 1925 3103
Q 1463 3103 1205 2759
Q 947 2416 947 1791
Q 947 1169 1205 825
Q 1463 481 1925 481
Q 2391 481 2648 825
Q 2906 1169 2906 1791
z
M 3481 434
Q 3481 -459 3084 -895
Q 2688 -1331 1869 -1331
Q 1566 -1331 1297 -1286
Q 1028 -1241 775 -1147
L 775 -588
Q 1028 -725 1275 -790
Q 1522 -856 1778 -856
Q 2344 -856 2625 -561
Q 2906 -266 2906 331
L 2906 616
Q 2728 306 2450 153
Q 2172 0 1784 0
Q 1141 0 747 490
Q 353 981 353 1791
Q 353 2603 747 3093
Q 1141 3584 1784 3584
Q 2172 3584 2450 3431
Q 2728 3278 2906 2969
L 2906 3500
L 3481 3500
L 3481 434
z
" transform="scale(0.015625)"/>
       <path id="DejaVuSans-31" d="M 794 531
L 1825 531
L 1825 4091
L 703 3866
L 703 4441
L 1819 4666
L 2450 4666
L 2450 531
L 3481 531
L 3481 0
L 794 0
L 794 531
z
" transform="scale(0.015625)"/>
       <path id="DejaVuSans-29" d="M 513 4856
L 1013 4856
Q 1481 4119 1714 3412
Q 1947 2706 1947 2009
Q 1947 1309 1714 600
Q 1481 -109 1013 -844
L 513 -844
Q 928 -128 1133 580
Q 1338 1288 1338 2009
Q 1338 2731 1133 3434
Q 928 4138 513 4856
z
" transform="scale(0.015625)"/>
      </defs>
      <use xlink:href="#DejaVuSans-63"/>
      <use xlink:href="#DejaVuSans-68" transform="translate(54.980469 0)"/>
      <use xlink:href="#DejaVuSans-72" transform="translate(118.359375 0)"/>
      <use xlink:href="#DejaVuSans-32" transform="translate(159.472656 0)"/>
      <use xlink:href="#DejaVuSans-20" transform="translate(223.095703 0)"/>
      <use xlink:href="#DejaVuSans-28" transform="translate(254.882812 0)"/>
      <use xlink:href="#DejaVuSans-68" transform="translate(293.896484 0)"/>
      <use xlink:href="#DejaVuSans-67" transform="translate(357.275391 0)"/>
      <use xlink:href="#DejaVuSans-31" transform="translate(420.751953 0)"/>
      <use xlink:href="#DejaVuSans-39" transform="translate(484.375 0)"/>
      <use xlink:href="#DejaVuSans-29" transform="translate(547.998047 0)"/>
     </g>
    </g>
   </g>
   <g id="matplotlib.axis_8">
    <g id="ytick_7">
     <g id="line2d_27">
      <g>
       <use xlink:href="#m83ce321b67" x="62.208" y="243.132287" style="stroke: #000000; stroke-width: 0.8"/>
      </g>
     </g>
     <g id="text_16">
      <!-- ours -->
      <g transform="translate(33.431438 246.931505) scale(0.1 -0.1)">
       <use xlink:href="#DejaVuSans-6f"/>
       <use xlink:href="#DejaVuSans-75" transform="translate(61.181641 0)"/>
       <use xlink:href="#DejaVuSans-72" transform="translate(124.560547 0)"/>
       <use xlink:href="#DejaVuSans-73" transform="translate(165.673828 0)"/>
      </g>
     </g>
    </g>
    <g id="ytick_8">
     <g id="line2d_28">
      <g>
       <use xlink:href="#m83ce321b67" x="62.208" y="231.66471" style="stroke: #000000; stroke-width: 0.8"/>
      </g>
     </g>
     <g id="text_17">
      <!-- ref -->
      <g transform="translate(41.648625 235.463929) scale(0.1 -0.1)">
       <use xlink:href="#DejaVuSans-72"/>
       <use xlink:href="#DejaVuSans-65" transform="translate(38.863281 0)"/>
       <use xlink:href="#DejaVuSans-66" transform="translate(100.386719 0)"/>
      </g>
     </g>
    </g>
   </g>
   <g id="EventCollection_7">
    <path d="M 68.81957 225.930922
L 68.81957 237.398498
" clip-path="url(#p6717dcb799)" style="fill: none; stroke: #0057b8; stroke-width: 1.9"/>
    <path d="M 123.691588 225.930922
L 123.691588 237.398498
" clip-path="url(#p6717dcb799)" style="fill: none; stroke: #0057b8; stroke-width: 1.9"/>
    <path d="M 172.865975 225.930922
L 172.865975 237.398498
" clip-path="url(#p6717dcb799)" style="fill: none; stroke: #0057b8; stroke-width: 1.9"/>
    <path d="M 224.849053 225.930922
L 224.849053 237.398498
" clip-path="url(#p6717dcb799)" style="fill: none; stroke: #0057b8; stroke-width: 1.9"/>
    <path d="M 271.067628 225.930922
L 271.067628 237.398498
" clip-path="url(#p6717dcb799)" style="fill: none; stroke: #0057b8; stroke-width: 1.9"/>
    <path d="M 298.534844 225.930922
L 298.534844 237.398498
" clip-path="url(#p6717dcb799)" style="fill: none; stroke: #0057b8; stroke-width: 1.9"/>
    <path d="M 321.820232 225.930922
L 321.820232 237.398498
" clip-path="url(#p6717dcb799)" style="fill: none; stroke: #0057b8; stroke-width: 1.9"/>
    <path d="M 346.64817 225.930922
L 346.64817 237.398498
" clip-path="url(#p6717dcb799)" style="fill: none; stroke: #0057b8; stroke-width: 1.9"/>
    <path d="M 367.361153 225.930922
L 367.361153 237.398498
" clip-path="url(#p6717dcb799)" style="fill: none; stroke: #0057b8; stroke-width: 1.9"/>
    <path d="M 390.677748 225.930922
L 390.677748 237.398498
" clip-path="url(#p6717dcb799)" style="fill: none; stroke: #0057b8; stroke-width: 1.9"/>
    <path d="M 420.039717 225.930922
L 420.039717 237.398498
" clip-path="url(#p6717dcb799)" style="fill: none; stroke: #0057b8; stroke-width: 1.9"/>
    <path d="M 495.241309 225.930922
L 495.241309 237.398498
" clip-path="url(#p6717dcb799)" style="fill: none; stroke: #0057b8; stroke-width: 1.9"/>
   </g>
   <g id="EventCollection_8">
    <path d="M 68.81957 237.398498
L 68.81957 248.866075
" clip-path="url(#p6717dcb799)" style="fill: none; stroke: #d62728; stroke-width: 1.9"/>
    <path d="M 123.691588 237.398498
L 123.691588 248.866075
" clip-path="url(#p6717dcb799)" style="fill: none; stroke: #d62728; stroke-width: 1.9"/>
    <path d="M 172.865975 237.398498
L 172.865975 248.866075
" clip-path="url(#p6717dcb799)" style="fill: none; stroke: #d62728; stroke-width: 1.9"/>
    <path d="M 224.849053 237.398498
L 224.849053 248.866075
" clip-path="url(#p6717dcb799)" style="fill: none; stroke: #d62728; stroke-width: 1.9"/>
    <path d="M 271.067628 237.398498
L 271.067628 248.866075
" clip-path="url(#p6717dcb799)" style="fill: none; stroke: #d62728; stroke-width: 1.9"/>
    <path d="M 298.534844 237.398498
L 298.534844 248.866075
" clip-path="url(#p6717dcb799)" style="fill: none; stroke: #d62728; stroke-width: 1.9"/>
    <path d="M 321.820232 237.398498
L 321.820232 248.866075
" clip-path="url(#p6717dcb799)" style="fill: none; stroke: #d62728; stroke-width: 1.9"/>
    <path d="M 346.64817 237.398498
L 346.64817 248.866075
" clip-path="url(#p6717dcb799)" style="fill: none; stroke: #d62728; stroke-width: 1.9"/>
    <path d="M 367.361153 237.398498
L 367.361153 248.866075
" clip-path="url(#p6717dcb799)" style="fill: none; stroke: #d62728; stroke-width: 1.9"/>
    <path d="M 390.677748 237.398498
L 390.677748 248.866075
" clip-path="url(#p6717dcb799)" style="fill: none; stroke: #d62728; stroke-width: 1.9"/>
    <path d="M 420.039717 237.398498
L 420.039717 248.866075
" clip-path="url(#p6717dcb799)" style="fill: none; stroke: #d62728; stroke-width: 1.9"/>
    <path d="M 495.241309 237.398498
L 495.241309 248.866075
" clip-path="url(#p6717dcb799)" style="fill: none; stroke: #d62728; stroke-width: 1.9"/>
   </g>
   <g id="patch_18">
    <path d="M 62.208 256.32
L 62.208 218.476997
" style="fill: none; stroke: #000000; stroke-width: 0.8; stroke-linejoin: miter; stroke-linecap: square"/>
   </g>
   <g id="patch_19">
    <path d="M 508.032 256.32
L 508.032 218.476997
" style="fill: none; stroke: #000000; stroke-width: 0.8; stroke-linejoin: miter; stroke-linecap: square"/>
   </g>
   <g id="patch_20">
    <path d="M 62.208 256.32
L 508.032 256.32
" style="fill: none; stroke: #000000; stroke-width: 0.8; stroke-linejoin: miter; stroke-linecap: square"/>
   </g>
   <g id="patch_21">
    <path d="M 62.208 218.476997
L 508.032 218.476997
" style="fill: none; stroke: #000000; stroke-width: 0.8; stroke-linejoin: miter; stroke-linecap: square"/>
   </g>
   <g id="text_18">
    <!-- fourier_ls -->
    <g transform="translate(257.449687 212.476997) scale(0.12 -0.12)">
     <use xlink:href="#DejaVuSans-66"/>
     <use xlink:href="#DejaVuSans-6f" transform="translate(35.205078 0)"/>
     <use xlink:href="#DejaVuSans-75" transform="translate(96.386719 0)"/>
     <use xlink:href="#DejaVuSans-72" transform="translate(159.765625 0)"/>
     <use xlink:href="#DejaVuSans-69" transform="translate(200.878906 0)"/>
     <use xlink:href="#DejaVuSans-65" transform="translate(228.662109 0)"/>
     <use xlink:href="#DejaVuSans-72" transform="translate(290.185547 0)"/>
     <use xlink:href="#DejaVuSans-5f" transform="translate(331.298828 0)"/>
     <use xlink:href="#DejaVuSans-6c" transform="translate(381.298828 0)"/>
     <use xlink:href="#DejaVuSans-73" transform="translate(409.082031 0)"/>
    </g>
   </g>
  </g>
 </g>
 <defs>
  <clipPath id="p465f0e6b9f">
   <rect x="62.208" y="34.56" width="445.824" height="37.843003"/>
  </clipPath>
  <clipPath id="pb3e97eb25b">
   <rect x="62.208" y="95.865666" width="445.824" height="37.843003"/>
  </clipPath>
  <clipPath id="p7c972c9533">
   <rect x="62.208" y="157.171331" width="445.824" height="37.843003"/>
  </clipPath>
  <clipPath id="p6717dcb799">
   <rect x="62.208" y="218.476997" width="445.824" height="37.843003"/>
  </clipPath>
 </defs>
</svg>
