<?xml version="1.0" encoding="utf-8" standalone="no"?>
<!DOCTYPE svg PUBLIC "-//W3C//DTD SVG 1.1//EN"
  "http://www.w3.org/Graphics/SVG/1.1/DTD/svg11.dtd">
<svg xmlns:xlink="http://www.w3.org/1999/xlink" width="518.4pt" height="230.4pt" viewBox="0 0 518.4 230.4" xmlns="http://www.w3.org/2000/svg" version="1.1">
 <metadata>
  <rdf:RDF xmlns:dc="http://purl.org/dc/elements/1.1/" xmlns:cc="http://creativecommons.org/ns#" xmlns:rdf="http://www.w3.org/1999/02/22-rdf-syntax-ns#">
   <cc:Work>
    <dc:type rdf:resource="http://purl.org/dc/dcmitype/StillImage"/>
    <dc:date>2026-07-12T14:51:58.118477</dc:date>
    <dc:format>image/svg+xml</dc:format>
    <dc:creator>
     <cc:Agent>
      <dc:title>Matplotlib v3.10.8, https://matplotlib.org/</dc:title>
     </cc:Agent>
    </dc:creator>
   </cc:Work>
  </rdf:RDF>
 </metadata>
 <defs>
  <style type="text/css">*{stroke-linejoin: round; stroke-linecap: butt}</style>
 </defs>
 <g id="figure_1">
  <g id="patch_1">
   <path d="M 0 230.4
L 518.4 230.4
L 518.4 0
L 0 0
z
" style="fill: #ffffff"/>
  </g>
  <g id="axes_1">
   <g id="patch_2">
    <path d="M 62.208 102.189176
L 508.032 102.189176
L 508.032 27.648
L 62.208 27.648
z
" style="fill: #ffffff"/>
   </g>
   <g id="matplotlib.axis_1">
    <g id="xtick_1">
     <g id="line2d_1">
      <defs>
       <path id="m38b0239e43" d="M 0 0
L 0 3.5
" style="stroke: #000000; stroke-width: 0.8"/>
      </defs>
      <g>
       <use xlink:href="#m38b0239e43" x="116.741192" y="102.189176" style="stroke: #000000; stroke-width: 0.8"/>
      </g>
     </g>
    </g>
    <g id="xtick_2">
     <g id="line2d_2">
      <g>
       <use xlink:href="#m38b0239e43" x="205.905992" y="102.189176" style="stroke: #000000; stroke-width: 0.8"/>
      </g>
     </g>
    </g>
    <g id="xtick_3">
     <g id="line2d_3">
      <g>
       <use xlink:href="#m38b0239e43" x="295.070792" y="102.189176" style="stroke: #000000; stroke-width: 0.8"/>
      </g>
     </g>
    </g>
    <g id="xtick_4">
     <g id="line2d_4">
      <g>
       <use xlink:href="#m38b0239e43" x="384.235592" y="102.189176" style="stroke: #000000; stroke-width: 0.8"/>
      </g>
     </g>
    </g>
    <g id="xtick_5">
     <g id="line2d_5">
      <g>
       <use xlink:href="#m38b0239e43" x="473.400392" y="102.189176" style="stroke: #000000; stroke-width: 0.8"/>
      </g>
     </g>
    </g>
   </g>
   <g id="matplotlib.axis_2">
    <g id="ytick_1">
     <g id="line2d_6">
      <defs>
       <path id="mc15e496719" d="M 0 0
L -3.5 0
" style="stroke: #000000; stroke-width: 0.8"/>
      </defs>
      <g>
       <use xlink:href="#mc15e496719" x="62.208" y="101.322065" style="stroke: #000000; stroke-width: 0.8"/>
      </g>
     </g>
     <g id="text_1">
      <!-- 0 -->
      <g transform="translate(48.8455 105.121284) scale(0.1 -0.1)">
       <defs>
        <path id="DejaVuSans-30" d="M 2034 4250
Q 1547 4250 1301 3770
Q 1056 3291 1056 2328
Q 1056 1369 1301 889
Q 1547 409 2034 409
Q 2525 409 2770 889
Q 3016 1369 3016 2328
Q 3016 3291 2770 3770
Q 2525 4250 2034 4250
z
M 2034 4750
Q 2819 4750 3233 4129
Q 3647 3509 3647 2328
Q 3647 1150 3233 529
Q 2819 -91 2034 -91
Q 1250 -91 836 529
Q 422 1150 422 2328
Q 422 3509 836 4129
Q 1250 4750 2034 4750
z
" transform="scale(0.015625)"/>
       </defs>
       <use xlink:href="#DejaVuSans-30"/>
      </g>
     </g>
    </g>
    <g id="ytick_2">
     <g id="line2d_7">
      <g>
       <use xlink:href="#mc15e496719" x="62.208" y="76.110823" style="stroke: #000000; stroke-width: 0.8"/>
      </g>
     </g>
     <g id="text_2">
      <!-- 10 -->
      <g transform="translate(42.483 79.910042) scale(0.1 -0.1)">
       <defs>
        <path id="DejaVuSans-31" d="M 794 531
L 1825 531
L 1825 4091
L 703 3866
L 703 4441
L 1819 4666
L 2450 4666
L 2450 531
L 3481 531
L 3481 0
L 794 0
L 794 531
z
" transform="scale(0.015625)"/>
       </defs>
       <use xlink:href="#DejaVuSans-31"/>
       <use xlink:href="#DejaVuSans-30" transform="translate(63.623047 0)"/>
      </g>
     </g>
    </g>
    <g id="ytick_3">
     <g id="line2d_8">
      <g>
       <use xlink:href="#mc15e496719" x="62.208" y="50.899581" style="stroke: #000000; stroke-width: 0.8"/>
      </g>
     </g>
     <g id="text_3">
      <!-- 20 -->
      <g transform="translate(42.483 54.6988) scale(0.1 -0.1)">
       <defs>
        <path id="DejaVuSans-32" d="M 1228 531
L 3431 531
L 3431 0
L 469 0
L 469 531
Q 828 903 1448 1529
Q 2069 2156 2228 2338
Q 2531 2678 2651 2914
Q 2772 3150 2772 3378
Q 2772 3750 2511 3984
Q 2250 4219 1831 4219
Q 1534 4219 1204 4116
Q 875 4013 500 3803
L 500 4441
Q 881 4594 1212 4672
Q 1544 4750 1819 4750
Q 2544 4750 2975 4387
Q 3406 4025 3406 3419
Q 3406 3131 3298 2873
Q 3191 2616 2906 2266
Q 2828 2175 2409 1742
Q 1991 1309 1228 531
z
" transform="scale(0.015625)"/>
       </defs>
       <use xlink:href="#DejaVuSans-32"/>
       <use xlink:href="#DejaVuSans-30" transform="translate(63.623047 0)"/>
      </g>
     </g>
    </g>
    <g id="text_4">
     <!-- diagonal sum -->
     <g transform="translate(36.403312 98.634213) rotate(-90) scale(0.1 -0.1)">
      <defs>
       <path id="DejaVuSans-64" d="M 2906 2969
L 2906 4863
L 3481 4863
L 3481 0
L 2906 0
L 2906 525
Q 2725 213 2448 61
Q 2172 -91 1784 -91
Q 1150 -91 751 415
Q 353 922 353 1747
Q 353 2572 751 3078
Q 1150 3584 1784 3584
Q 2172 3584 2448 3432
Q 2725 3281 2906 2969
z
M 947 1747
Q 947 1113 1208 752
Q 1469 391 1925 391
Q 2381 391 2643 752
Q 2906 1113 2906 1747
Q 2906 2381 2643 2742
Q 2381 3103 1925 3103
Q 1469 3103 1208 2742
Q 947 2381 947 1747
z
" transform="scale(0.015625)"/>
       <path id="DejaVuSans-69" d="M 603 3500
L 1178 3500
L 1178 0
L 603 0
L 603 3500
z
M 603 4863
L 1178 4863
L 1178 4134
L 603 4134
L 603 4863
z
" transform="scale(0.015625)"/>
       <path id="DejaVuSans-61" d="M 2194 1759
Q 1497 1759 1228 1600
Q 959 1441 959 1056
Q 959 750 1161 570
Q 1363 391 1709 391
Q 2188 391 2477 730
Q 2766 1069 2766 1631
L 2766 1759
L 2194 1759
z
M 3341 1997
L 3341 0
L 2766 0
L 2766 531
Q 2569 213 2275 61
Q 1981 -91 1556 -91
Q 1019 -91 701 211
Q 384 513 384 1019
Q 384 1609 779 1909
Q 1175 2209 1959 2209
L 2766 2209
L 2766 2266
Q 2766 2663 2505 2880
Q 2244 3097 1772 3097
Q 1472 3097 1187 3025
Q 903 2953 641 2809
L 641 3341
Q 956 3463 1253 3523
Q 1550 3584 1831 3584
Q 2591 3584 2966 3190
Q 3341 2797 3341 1997
z
" transform="scale(0.015625)"/>
       <path id="DejaVuSans-67" d="M 2906 1791
Q 2906 2416 2648 2759
Q 2391 3103 1925 3103
Q 1463 3103 1205 2759
Q 947 2416 947 1791
Q 947 1169 1205 825
Q 1463 481 1925 481
Q 2391 481 2648 825
Q 2906 1169 2906 1791
z
M 3481 434
Q 3481 -459 3084 -895
Q 2688 -1331 1869 -1331
Q 1566 -1331 1297 -1286
Q 1028 -1241 775 -1147
L 775 -588
Q 1028 -725 1275 -790
Q 1522 -856 1778 -856
Q 2344 -856 2625 -561
Q 2906 -266 2906 331
L 2906 616
Q 2728 306 2450 153
Q 2172 0 1784 0
Q 1141 0 747 490
Q 353 981 353 1791
Q 353 2603 747 3093
Q 1141 3584 1784 3584
Q 2172 3584 2450 3431
Q 2728 3278 2906 2969
L 2906 3500
L 3481 3500
L 3481 434
z
" transform="scale(0.015625)"/>
       <path id="DejaVuSans-6f" d="M 1959 3097
Q 1497 3097 1228 2736
Q 959 2375 959 1747
Q 959 1119 1226 758
Q 1494 397 1959 397
Q 2419 397 2687 759
Q 2956 1122 2956 1747
Q 2956 2369 2687 2733
Q 2419 3097 1959 3097
z
M 1959 3584
Q 2709 3584 3137 3096
Q 3566 2609 3566 1747
Q 3566 888 3137 398
Q 2709 -91 1959 -91
Q 1206 -91 779 398
Q 353 888 353 1747
Q 353 2609 779 3096
Q 1206 3584 1959 3584
z
" transform="scale(0.015625)"/>
       <path id="DejaVuSans-6e" d="M 3513 2113
L 3513 0
L 2938 0
L 2938 2094
Q 2938 2591 2744 2837
Q 2550 3084 2163 3084
Q 1697 3084 1428 2787
Q 1159 2491 1159 1978
L 1159 0
L 581 0
L 581 3500
L 1159 3500
L 1159 2956
Q 1366 3272 1645 3428
Q 1925 3584 2291 3584
Q 2894 3584 3203 3211
Q 3513 2838 3513 2113
z
" transform="scale(0.015625)"/>
       <path id="DejaVuSans-6c" d="M 603 4863
L 1178 4863
L 1178 0
L 603 0
L 603 4863
z
" transform="scale(0.015625)"/>
       <path id="DejaVuSans-20" transform="scale(0.015625)"/>
       <path id="DejaVuSans-73" d="M 2834 3397
L 2834 2853
Q 2591 2978 2328 3040
Q 2066 3103 1784 3103
Q 1356 3103 1142 2972
Q 928 2841 928 2578
Q 928 2378 1081 2264
Q 1234 2150 1697 2047
L 1894 2003
Q 2506 1872 2764 1633
Q 3022 1394 3022 966
Q 3022 478 2636 193
Q 2250 -91 1575 -91
Q 1294 -91 989 -36
Q 684 19 347 128
L 347 722
Q 666 556 975 473
Q 1284 391 1588 391
Q 1994 391 2212 530
Q 2431 669 2431 922
Q 2431 1156 2273 1281
Q 2116 1406 1581 1522
L 1381 1569
Q 847 1681 609 1914
Q 372 2147 372 2553
Q 372 3047 722 3315
Q 1072 3584 1716 3584
Q 2034 3584 2315 3537
Q 2597 3491 2834 3397
z
" transform="scale(0.015625)"/>
       <path id="DejaVuSans-75" d="M 544 1381
L 544 3500
L 1119 3500
L 1119 1403
Q 1119 906 1312 657
Q 1506 409 1894 409
Q 2359 409 2629 706
Q 2900 1003 2900 1516
L 2900 3500
L 3475 3500
L 3475 0
L 2900 0
L 2900 538
Q 2691 219 2414 64
Q 2138 -91 1772 -91
Q 1169 -91 856 284
Q 544 659 544 1381
z
M 1991 3584
L 1991 3584
z
" transform="scale(0.015625)"/>
       <path id="DejaVuSans-6d" d="M 3328 2828
Q 3544 3216 3844 3400
Q 4144 3584 4550 3584
Q 5097 3584 5394 3201
Q 5691 2819 5691 2113
L 5691 0
L 5113 0
L 5113 2094
Q 5113 2597 4934 2840
Q 4756 3084 4391 3084
Q 3944 3084 3684 2787
Q 3425 2491 3425 1978
L 3425 0
L 2847 0
L 2847 2094
Q 2847 2600 2669 2842
Q 2491 3084 2119 3084
Q 1678 3084 1418 2786
Q 1159 2488 1159 1978
L 1159 0
L 581 0
L 581 3500
L 1159 3500
L 1159 2956
Q 1356 3278 1631 3431
Q 1906 3584 2284 3584
Q 2666 3584 2933 3390
Q 3200 3197 3328 2828
z
" transform="scale(0.015625)"/>
      </defs>
      <use xlink:href="#DejaVuSans-64"/>
      <use xlink:href="#DejaVuSans-69" transform="translate(63.476562 0)"/>
      <use xlink:href="#DejaVuSans-61" transform="translate(91.259766 0)"/>
      <use xlink:href="#DejaVuSans-67" transform="translate(152.539062 0)"/>
      <use xlink:href="#DejaVuSans-6f" transform="translate(216.015625 0)"/>
      <use xlink:href="#DejaVuSans-6e" transform="translate(277.197266 0)"/>
      <use xlink:href="#DejaVuSans-61" transform="translate(340.576172 0)"/>
      <use xlink:href="#DejaVuSans-6c" transform="translate(401.855469 0)"/>
      <use xlink:href="#DejaVuSans-20" transform="translate(429.638672 0)"/>
      <use xlink:href="#DejaVuSans-73" transform="translate(461.425781 0)"/>
      <use xlink:href="#DejaVuSans-75" transform="translate(513.525391 0)"/>
      <use xlink:href="#DejaVuSans-6d" transform="translate(576.904297 0)"/>
     </g>
    </g>
   </g>
   <g id="line2d_9">
    <path d="M 62.208 98.800941
L 63.0194 98.695731
L 64.272165 98.793786
L 66.064378 98.564242
L 66.599366 97.43862
L 68.471827 96.021545
L 68.81957 96.179602
L 71.851173 96.210638
L 73.121772 96.792918
L 73.233228 92.458152
L 73.799424 96.797321
L 73.866298 93.265511
L 74.111501 94.898619
L 74.428036 96.037343
L 74.757946 96.195704
L 75.350892 97.158539
L 76.166749 91.287607
L 77.169853 97.090832
L 77.187686 90.733135
L 77.539887 94.157502
L 79.795757 93.205282
L 80.794403 91.906285
L 81.07973 98.473836
L 81.084188 92.043111
L 83.05473 91.814841
L 84.289663 89.550267
L 85.377473 93.649264
L 85.957044 91.563944
L 86.072959 91.594705
L 86.527699 89.161111
L 88.199539 84.446951
L 88.235205 83.484384
L 90.089833 87.538312
L 90.143332 79.071806
L 90.878941 87.453805
L 91.962294 84.343873
L 92.992147 91.817619
L 93.11252 80.410256
L 93.977418 85.566925
L 95.845421 91.756098
L 96.139665 80.225422
L 96.242204 84.409146
L 97.294349 85.983652
L 97.704507 78.964795
L 97.94971 93.55898
L 98.145873 87.511736
L 100.085207 87.796377
L 100.169914 89.113862
L 100.66032 85.182099
L 101.930918 87.971961
L 102.519406 88.329086
L 104.075332 80.379969
L 104.547905 84.629495
L 104.86444 82.816213
L 105.065061 73.81035
L 105.087352 78.493851
L 105.546551 86.583893
L 105.885377 81.941412
L 107.173809 84.949296
L 107.610716 78.868069
L 107.967375 79.997819
L 109.188933 77.704017
L 109.438595 78.87451
L 110.325784 79.648572
L 110.84294 77.794586
L 112.840232 74.647865
L 113.660548 70.747004
L 114.873189 84.499006
L 115.711338 66.742053
L 115.952083 81.833997
L 118.176745 78.700569
L 118.890063 69.845652
L 119.719296 72.492583
L 119.968957 84.892583
L 122.474488 73.024597
L 122.536904 73.447774
L 123.691588 69.422561
L 124.088371 69.720656
L 124.208744 73.666712
L 124.525279 67.070529
L 125.153891 75.555734
L 125.911791 73.180237
L 126.330866 68.863003
L 128.769523 81.592552
L 129.197514 70.666488
L 129.661171 75.555385
L 129.670088 68.359724
L 130.775731 77.93875
L 133.504174 73.259348
L 133.695878 77.073877
L 135.657504 66.222874
L 135.679795 80.876749
L 138.051579 66.230739
L 138.439446 69.428056
L 141.043058 75.48885
L 142.340406 76.346845
L 142.928893 80.161924
L 144.91281 79.741656
L 146.125452 79.105134
L 148.541818 73.800125
L 148.568567 75.83049
L 148.782563 71.682699
L 149.228387 81.865958
L 149.723251 71.864535
L 151.078556 74.3769
L 153.945204 71.660262
L 154.199324 72.358282
L 155.541254 72.670962
L 155.991537 77.253755
L 157.3513 74.887527
L 158.448027 82.182971
L 161.354799 72.030826
L 162.69673 73.636683
L 162.839393 70.824376
L 164.613773 72.164815
L 164.636064 74.551563
L 164.885725 78.27672
L 165.795206 68.44714
L 165.906662 71.429072
L 167.186177 72.147913
L 167.239676 76.974927
L 168.077825 68.600914
L 169.179011 73.720635
L 169.268175 66.785566
L 170.427318 65.662121
L 170.494191 70.775198
L 170.62348 80.383236
L 170.783977 64.827405
L 172.865975 62.647589
L 173.133469 66.909812
L 175.442838 64.452083
L 176.205197 74.181329
L 176.494982 73.812099
L 177.172635 65.896266
L 177.854746 68.926979
L 177.903786 66.601002
L 178.559148 73.747916
L 178.568064 64.386525
L 178.942556 67.122078
L 179.067387 65.460088
L 179.71829 69.542034
L 180.721394 73.200696
L 180.783809 82.494541
L 181.234092 77.513768
L 181.23855 71.210762
L 181.421338 70.746555
L 181.849329 75.845295
L 183.962534 75.917952
L 184.381609 83.647874
L 184.70706 77.290414
L 185.763663 84.766235
L 186.013325 71.1876
L 187.101135 79.008734
L 187.560334 74.363435
L 187.662874 80.410462
L 188.630312 76.01649
L 189.098427 65.446075
L 189.205425 81.160457
L 189.593292 83.667102
L 190.110447 82.924807
L 191.581667 74.798257
L 194.247694 78.11466
L 194.323484 78.893354
L 194.644477 77.612263
L 195.62529 76.042377
L 196.878056 76.186861
L 197.658248 85.295062
L 198.991261 78.908466
L 199.053677 74.324948
L 199.174049 73.854473
L 200.97072 69.460175
L 201.260506 79.15522
L 202.147695 77.026399
L 202.419648 79.989822
L 202.852097 74.714225
L 202.968012 82.469211
L 203.27563 76.853812
L 205.767786 84.747703
L 205.923825 82.759133
L 206.293859 80.745365
L 206.54352 74.724176
L 208.077155 84.540298
L 208.184152 82.544113
L 209.004468 86.757402
L 209.552832 85.168432
L 210.426647 78.857024
L 213.917449 85.724189
L 214.211693 78.654706
L 214.327607 84.319517
L 214.965135 88.644358
L 216.133194 87.626083
L 218.001197 88.538123
L 218.464854 83.559134
L 220.087653 85.281406
L 222.32569 92.252225
L 224.742056 89.794399
L 224.849053 88.987504
L 226.097361 89.235861
L 227.965363 88.512252
L 227.97428 86.433015
L 228.486977 87.151839
L 228.816887 92.006408
L 229.017508 86.35506
L 229.276086 86.526611
L 229.490081 86.890364
L 230.292564 89.306516
L 230.32823 90.242424
L 230.421853 87.722862
L 230.845386 89.894267
L 233.587204 93.379639
L 234.572475 86.914377
L 234.625974 93.437579
L 235.829699 92.346019
L 238.718638 93.071452
L 238.963841 91.881636
L 239.240252 87.479032
L 240.662431 90.746172
L 241.603119 90.990893
L 242.481393 89.670363
L 242.762262 89.62069
L 243.480038 91.332281
L 244.679305 91.83905
L 244.839802 90.089654
L 245.044881 90.520149
L 245.049339 93.459412
L 246.21294 88.43619
L 246.475976 92.557898
L 247.492454 91.230164
L 248.241439 91.43756
L 249.012714 91.015177
L 249.520954 92.564667
L 249.841947 91.92346
L 250.051484 92.507715
L 250.733595 90.899784
L 252.436643 91.927434
L 253.145503 90.133643
L 254.500808 91.262055
L 254.505266 92.567537
L 256.694262 91.715047
L 257.750865 88.467487
L 258.392851 92.595956
L 259.329082 89.004305
L 259.752614 90.886507
L 260.737885 86.981475
L 261.825696 88.248748
L 262.097649 89.076211
L 262.579139 89.982336
L 263.28354 85.803776
L 263.448495 87.188442
L 263.84082 87.881986
L 264.589805 85.130546
L 265.356622 90.95155
L 265.570618 82.079622
L 266.939297 83.778582
L 268.740426 91.119863
L 268.95888 82.2597
L 269.355663 83.82212
L 269.373496 84.683885
L 270.17598 81.37309
L 270.305268 83.637812
L 270.715427 87.860612
L 271.067628 77.409768
L 271.308372 79.069642
L 271.656115 78.175989
L 272.142063 71.098852
L 272.146522 76.429203
L 272.356059 82.034697
L 272.712718 75.752017
L 273.403745 77.623053
L 273.524118 84.009464
L 274.219603 66.529862
L 274.518305 77.665979
L 274.705551 77.399827
L 275.16475 67.165899
L 276.328351 79.182125
L 277.179875 63.330571
L 277.558825 76.365042
L 278.392516 79.617047
L 278.758092 62.110805
L 279.203916 62.839484
L 280.073272 73.808624
L 281.375078 68.094781
L 283.078126 65.336499
L 283.113792 72.351794
L 283.434785 55.307575
L 283.720113 69.614224
L 284.103521 66.299038
L 284.535971 69.190059
L 284.616219 62.584378
L 285.155666 78.854169
L 286.524346 67.252169
L 286.79184 73.134913
L 286.796298 70.432179
L 287.242122 57.884022
L 287.536366 64.22933
L 287.875192 60.837603
L 288.004481 71.170624
L 288.031231 55.089476
L 288.249684 65.917223
L 289.136874 61.860961
L 289.243872 65.251835
L 289.453409 66.438414
L 289.676321 58.568891
L 290.411931 57.953067
L 292.600927 59.303302
L 293.608489 67.712578
L 293.719945 65.362452
L 294.13902 67.638514
L 294.807756 67.031645
L 294.892462 53.180266
L 295.217914 65.920652
L 296.56876 61.08449
L 296.582135 61.404252
L 296.885295 56.197537
L 297.090374 70.004687
L 298.534844 61.14377
L 300.010522 58.889522
L 300.01498 59.881236
L 300.407305 57.558348
L 303.447825 68.643573
L 304.482136 65.735311
L 305.208829 68.497478
L 307.567238 56.781857
L 309.430783 54.847612
L 311.316618 63.369322
L 311.468198 62.455843
L 311.499406 68.510878
L 313.875648 60.296345
L 314.227849 56.535396
L 314.678131 69.622451
L 314.740547 58.401672
L 314.936709 54.258065
L 315.7704 70.190848
L 316.292014 52.71556
L 316.309847 60.308981
L 316.537217 57.103984
L 318.003978 53.237099
L 319.778358 56.761021
L 320.527342 63.077676
L 320.620965 61.757709
L 321.820232 53.080445
L 322.497884 58.029826
L 323.202286 48.594338
L 324.071643 57.774074
L 324.419386 58.188152
L 328.685921 64.697035
L 328.81521 51.575308
L 328.984623 55.244139
L 329.234285 56.277881
L 329.622152 49.889944
L 329.903021 62.556862
L 330.290888 50.708845
L 330.371136 65.140935
L 330.709962 56.932358
L 330.848168 50.64459
L 331.289533 56.939441
L 332.341678 52.872854
L 332.765211 63.153222
L 333.585527 59.220466
L 336.505674 63.631702
L 336.670629 53.959404
L 337.571194 51.683567
L 337.963519 54.076564
L 338.84625 54.532423
L 339.207368 54.942656
L 339.318824 61.112167
L 339.876104 61.272025
L 340.29072 57.408243
L 340.625088 57.089474
L 341.868937 53.271925
L 342.720461 45.089512
L 342.854208 58.265796
L 343.250991 47.761081
L 344.026725 52.005606
L 345.422154 57.314176
L 345.63615 51.586664
L 346.434175 54.587965
L 346.452008 49.610809
L 346.64817 51.431688
L 346.679378 56.208961
L 346.683836 54.482984
L 350.70071 53.642465
L 351.1822 51.811385
L 351.636941 43.710549
L 351.828645 61.448508
L 352.443882 47.839667
L 352.466173 61.015123
L 352.568713 60.440926
L 354.240553 41.265038
L 354.592754 58.513806
L 354.664086 44.208944
L 355.457652 53.857077
L 355.738522 52.062193
L 356.22447 50.737196
L 357.713522 58.560847
L 359.305114 51.242254
L 359.336321 47.676027
L 360.321592 49.190914
L 360.459798 57.516686
L 360.491005 46.619022
L 360.629211 47.327105
L 360.771875 60.519252
L 361.841852 31.036235
L 362.020182 52.192917
L 363.981807 56.85311
L 364.293884 33.15895
L 364.32955 54.256473
L 364.445464 46.853428
L 364.828873 53.24654
L 366.523004 50.071227
L 367.361153 49.478065
L 367.789144 32.032769
L 370.597836 33.521324
L 370.673626 37.452129
L 370.691459 47.314312
L 370.71375 46.394592
L 370.811831 47.844648
L 371.382486 41.671191
L 371.440443 44.859956
L 375.5019 49.51966
L 375.564315 47.634848
L 376.010139 61.789872
L 376.955286 45.100478
L 377.227238 58.656917
L 377.601731 46.199722
L 378.141178 56.864448
L 378.578085 48.997455
L 381.35111 51.398559
L 382.915953 53.745262
L 382.933786 50.370411
L 384.155343 58.812256
L 384.538752 46.409714
L 384.819621 52.131505
L 385.524023 46.507643
L 385.564147 42.3043
L 386.36663 61.592733
L 386.576168 40.994556
L 387.601563 44.552117
L 387.739768 43.515124
L 387.940389 53.849322
L 388.488753 48.59292
L 390.677748 52.105399
L 390.77583 60.529808
L 392.657207 51.994208
L 392.768663 45.190656
L 392.920243 55.002221
L 393.361609 46.763428
L 394.146259 52.012904
L 394.440503 51.702086
L 395.960763 53.54528
L 396.241632 52.27723
L 396.415503 56.192531
L 397.258111 58.695358
L 397.628145 39.585352
L 398.662456 57.247982
L 399.429274 48.304509
L 399.808224 62.703649
L 400.37442 44.135248
L 400.601791 63.071309
L 401.078822 54.711196
L 401.435482 56.742901
L 401.890222 52.867376
L 401.916972 64.434424
L 402.25134 68.633472
L 402.670414 55.292347
L 402.817536 63.991318
L 403.26336 60.773214
L 404.155008 55.931877
L 404.636498 58.174496
L 406.473293 51.971252
L 406.620415 72.795991
L 407.128654 50.077437
L 407.449647 58.040761
L 407.561103 48.322911
L 409.643101 48.02586
L 410.441126 50.303563
L 410.574874 57.959482
L 412.063926 61.149344
L 412.340337 53.01064
L 413.918554 58.659928
L 414.538249 53.888085
L 414.770077 53.48114
L 415.189152 62.334661
L 415.465563 58.777649
L 415.603768 60.741044
L 415.915845 56.130873
L 417.364773 58.28456
L 417.975552 64.54333
L 418.087008 53.511072
L 419.219401 68.048566
L 419.540394 55.080571
L 420.039717 68.634117
L 420.646038 61.1243
L 421.047279 60.898646
L 421.421772 67.175362
L 421.435146 53.525049
L 421.537686 67.082316
L 422.375835 62.004942
L 422.69237 79.092997
L 422.732494 75.641095
L 423.347731 65.461574
L 424.653996 68.431556
L 424.983905 68.285652
L 425.255858 70.661068
L 428.403375 70.834916
L 429.397563 67.513607
L 430.387292 79.43444
L 430.842033 59.848272
L 432.62087 74.293054
L 432.915114 70.090394
L 433.329731 72.420865
L 434.056424 72.717818
L 434.239212 68.761748
L 434.364042 69.419875
L 434.689494 66.088276
L 436.022508 65.514315
L 436.356876 65.21838
L 438.438874 54.940272
L 438.519122 65.990065
L 439.15665 70.367261
L 442.058964 72.806674
L 442.67866 74.245499
L 443.173524 75.775992
L 443.918051 64.269928
L 445.322396 77.161584
L 445.643389 78.671715
L 446.205128 85.006657
L 446.717825 76.99393
L 446.749033 73.57627
L 446.842656 74.261886
L 447.44006 75.552104
L 447.645139 84.449039
L 448.452081 79.650609
L 448.541245 77.712328
L 449.049485 73.787212
L 450.043672 70.628151
L 450.30225 80.956207
L 450.832781 80.726398
L 450.85953 71.841226
L 451.069068 74.847008
L 451.483684 70.893631
L 454.194294 75.901357
L 454.880863 74.294165
L 456.075671 72.560224
L 456.76224 71.884984
L 458.246834 76.304007
L 460.239667 69.827817
L 460.582952 78.925432
L 460.81478 76.760699
L 461.162523 81.966814
L 461.871383 75.047178
L 462.00513 71.267582
L 462.263708 69.573722
L 462.825446 79.443303
L 462.910153 73.398915
L 464.755864 72.35364
L 464.809363 74.272517
L 465.201688 76.07723
L 465.330977 71.139764
L 465.674262 72.892819
L 465.692095 78.820406
L 467.034025 81.184545
L 467.98363 86.033401
L 468.121836 76.102084
L 468.331373 81.076216
L 468.803946 78.618417
L 469.851633 81.897742
L 469.976463 81.128469
L 470.043337 86.779092
L 470.105752 81.992978
L 470.404454 77.697587
L 470.707615 80.866716
L 470.930527 79.420711
L 471.313935 82.753002
L 472.84757 85.024021
L 474.403496 83.479891
L 475.990629 79.105444
L 476.677198 82.215482
L 476.944692 82.86614
L 477.020483 85.944937
L 477.827424 84.682133
L 478.451578 86.378861
L 478.879569 82.00123
L 478.933068 84.820687
L 479.91388 80.521958
L 480.029795 83.670328
L 480.729738 91.329281
L 480.867944 83.560521
L 481.973587 84.681759
L 482.09396 86.127984
L 482.909818 87.323354
L 482.981149 84.883829
L 485.067606 89.819198
L 486.364954 89.458957
L 486.663656 85.756984
L 486.833069 91.032222
L 488.063543 86.752231
L 488.727821 87.035575
L 489.56597 84.194927
L 490.105417 90.675336
L 490.390744 92.322437
L 490.9079 88.880724
L 491.861964 92.780806
L 491.942212 91.853044
L 492.624323 94.20846
L 493.850339 97.9684
L 494.001919 97.775129
L 494.902483 95.491909
L 495.241309 98.305195
L 496.453951 95.657627
L 496.520824 97.574263
L 497.122687 97.949637
L 497.755757 97.737545
L 497.951919 97.834838
L 498.027709 95.801791
L 498.70982 98.049784
L 499.048646 97.956325
L 499.561344 98.645567
L 500.007168 98.435701
L 501.643342 98.468099
L 501.928669 98.772105
L 502.062417 98.374722
L 502.798026 98.535151
L 502.922857 98.144089
L 505.053896 98.043245
L 506.391368 98.211731
L 506.476074 97.872654
L 506.904065 98.791628
L 507.492553 98.795261
L 507.492553 98.795261
" clip-path="url(#p5f21ce78c6)" style="fill: none; stroke: #0057b8; stroke-width: 1.5; stroke-linecap: square"/>
   </g>
   <g id="line2d_10">
    <path d="M 62.208 98.800941
L 63.0194 98.695731
L 64.272165 98.793786
L 66.064378 98.564242
L 66.599366 97.43862
L 68.471827 96.021545
L 68.81957 96.179602
L 71.851173 96.210638
L 73.121772 96.792918
L 73.233228 92.458152
L 73.799424 96.797321
L 73.866298 93.265511
L 74.111501 94.898619
L 74.428036 96.037343
L 74.757946 96.195704
L 75.350892 97.158539
L 76.166749 91.287607
L 77.169853 97.090832
L 77.187686 90.733135
L 77.539887 94.157502
L 79.795757 93.205282
L 80.794403 91.906285
L 81.07973 98.473836
L 81.084188 92.043111
L 83.05473 91.814841
L 84.289663 89.550267
L 85.377473 93.649264
L 85.957044 91.563944
L 86.072959 91.594705
L 86.527699 89.161111
L 88.199539 84.446951
L 88.235205 83.484384
L 90.089833 87.538312
L 90.143332 79.071806
L 90.878941 87.453805
L 91.962294 84.343873
L 92.992147 91.817619
L 93.11252 80.410256
L 93.977418 85.566925
L 95.845421 91.756098
L 96.139665 80.225422
L 96.242204 84.409146
L 97.294349 85.983652
L 97.704507 78.964795
L 97.94971 93.55898
L 98.145873 87.511736
L 100.085207 87.796377
L 100.169914 89.113862
L 100.66032 85.182099
L 101.930918 87.971961
L 102.519406 88.329086
L 104.075332 80.379969
L 104.547905 84.629495
L 104.86444 82.816213
L 105.065061 73.81035
L 105.087352 78.493851
L 105.546551 86.583893
L 105.885377 81.941412
L 107.173809 84.949296
L 107.610716 78.868069
L 107.967375 79.997819
L 109.188933 77.704017
L 109.438595 78.87451
L 110.325784 79.648572
L 110.84294 77.794586
L 112.840232 74.647865
L 113.660548 70.747004
L 114.873189 84.499006
L 115.711338 66.742053
L 115.952083 81.833997
L 118.176745 78.700569
L 118.890063 69.845652
L 119.719296 72.492583
L 119.968957 84.892583
L 122.474488 73.024597
L 122.536904 73.447774
L 123.691588 69.422561
L 124.088371 69.720656
L 124.208744 73.666712
L 124.525279 67.070529
L 125.153891 75.555734
L 125.911791 73.180237
L 126.330866 68.863003
L 128.769523 81.592552
L 129.197514 70.666488
L 129.661171 75.555385
L 129.670088 68.359724
L 130.775731 77.93875
L 133.504174 73.259348
L 133.695878 77.073877
L 135.657504 66.222874
L 135.679795 80.876749
L 138.051579 66.230739
L 138.439446 69.428056
L 141.043058 75.48885
L 142.340406 76.346845
L 142.928893 80.161924
L 144.91281 79.741656
L 146.125452 79.105134
L 148.541818 73.800125
L 148.568567 75.83049
L 148.782563 71.682699
L 149.228387 81.865958
L 149.723251 71.864535
L 151.078556 74.3769
L 153.945204 71.660262
L 154.199324 72.358282
L 155.541254 72.670962
L 155.991537 77.253755
L 157.3513 74.887527
L 158.448027 82.182971
L 161.354799 72.030826
L 162.69673 73.636683
L 162.839393 70.824376
L 164.613773 72.164815
L 164.636064 74.551563
L 164.885725 78.27672
L 165.795206 68.44714
L 165.906662 71.429072
L 167.186177 72.147913
L 167.239676 76.974927
L 168.077825 68.600914
L 169.179011 73.720635
L 169.268175 66.785566
L 170.427318 65.662121
L 170.494191 70.775198
L 170.62348 80.383236
L 170.783977 64.827405
L 172.865975 62.647589
L 173.133469 66.909812
L 175.442838 64.452083
L 176.205197 74.181329
L 176.494982 73.812099
L 177.172635 65.896266
L 177.854746 68.926979
L 177.903786 66.601002
L 178.559148 73.747916
L 178.568064 64.386525
L 178.942556 67.122078
L 179.067387 65.460088
L 179.71829 69.542034
L 180.721394 73.200696
L 180.783809 82.494541
L 181.234092 77.513768
L 181.23855 71.210762
L 181.421338 70.746555
L 181.849329 75.845295
L 183.962534 75.917952
L 184.381609 83.647874
L 184.70706 77.290414
L 185.763663 84.766235
L 186.013325 71.1876
L 187.101135 79.008734
L 187.560334 74.363435
L 187.662874 80.410462
L 188.630312 76.01649
L 189.098427 65.446075
L 189.205425 81.160457
L 189.593292 83.667102
L 190.110447 82.924807
L 191.581667 74.798257
L 194.247694 78.11466
L 194.323484 78.893354
L 194.644477 77.612263
L 195.62529 76.042377
L 196.878056 76.186861
L 197.658248 85.295062
L 198.991261 78.908466
L 199.053677 74.324948
L 199.174049 73.854473
L 200.97072 69.460175
L 201.260506 79.15522
L 202.147695 77.026399
L 202.419648 79.989822
L 202.852097 74.714225
L 202.968012 82.469211
L 203.27563 76.853812
L 205.767786 84.747703
L 205.923825 82.759133
L 206.293859 80.745365
L 206.54352 74.724176
L 208.077155 84.540298
L 208.184152 82.544113
L 209.004468 86.757402
L 209.552832 85.168432
L 210.426647 78.857024
L 213.917449 85.724189
L 214.211693 78.654706
L 214.327607 84.319517
L 214.965135 88.644358
L 216.133194 87.626083
L 218.001197 88.538123
L 218.464854 83.559134
L 220.087653 85.281406
L 222.32569 92.252225
L 224.742056 89.794399
L 224.849053 88.987504
L 226.097361 89.235861
L 227.965363 88.512252
L 227.97428 86.433015
L 228.486977 87.151839
L 228.816887 92.006408
L 229.017508 86.35506
L 229.276086 86.526611
L 229.490081 86.890364
L 230.292564 89.306516
L 230.32823 90.242424
L 230.421853 87.722862
L 230.845386 89.894267
L 233.587204 93.379639
L 234.572475 86.914377
L 234.625974 93.437579
L 235.829699 92.346019
L 238.718638 93.071452
L 238.963841 91.881636
L 239.240252 87.479032
L 240.662431 90.746172
L 241.603119 90.990893
L 242.481393 89.670363
L 242.762262 89.62069
L 243.480038 91.332281
L 244.679305 91.83905
L 244.839802 90.089654
L 245.044881 90.520149
L 245.049339 93.459412
L 246.21294 88.43619
L 246.475976 92.557898
L 247.492454 91.230164
L 248.241439 91.43756
L 249.012714 91.015177
L 249.520954 92.564667
L 249.841947 91.92346
L 250.051484 92.507715
L 250.733595 90.899784
L 252.436643 91.927434
L 253.145503 90.133643
L 254.500808 91.262055
L 254.505266 92.567537
L 256.694262 91.715047
L 257.750865 88.467487
L 258.392851 92.595956
L 259.329082 89.004305
L 259.752614 90.886507
L 260.737885 86.981475
L 261.825696 88.248748
L 262.097649 89.076211
L 262.579139 89.982336
L 263.28354 85.803776
L 263.448495 87.188442
L 263.84082 87.881986
L 264.589805 85.130546
L 265.356622 90.95155
L 265.570618 82.079622
L 266.939297 83.778582
L 268.740426 91.119863
L 268.95888 82.2597
L 269.355663 83.82212
L 269.373496 84.683885
L 270.17598 81.37309
L 270.305268 83.637812
L 270.715427 87.860612
L 271.067628 77.409768
L 271.308372 79.069642
L 271.656115 78.175989
L 272.142063 71.098852
L 272.146522 76.429203
L 272.356059 82.034697
L 272.712718 75.752017
L 273.403745 77.623053
L 273.524118 84.009464
L 274.219603 66.529862
L 274.518305 77.665979
L 274.705551 77.399827
L 275.16475 67.165899
L 276.328351 79.182125
L 277.179875 63.330571
L 277.558825 76.365042
L 278.392516 79.617047
L 278.758092 62.110805
L 279.203916 62.839484
L 280.073272 73.808624
L 281.375078 68.094781
L 283.078126 65.336499
L 283.113792 72.351794
L 283.434785 55.307575
L 283.720113 69.614224
L 284.103521 66.299038
L 284.535971 69.190059
L 284.616219 62.584378
L 285.155666 78.854169
L 286.524346 67.252169
L 286.79184 73.134913
L 286.796298 70.432179
L 287.242122 57.884022
L 287.536366 64.22933
L 287.875192 60.837603
L 288.004481 71.170624
L 288.031231 55.089476
L 288.249684 65.917223
L 289.136874 61.860961
L 289.243872 65.251835
L 289.453409 66.438414
L 289.676321 58.568891
L 290.411931 57.953067
L 292.600927 59.303302
L 293.608489 67.712578
L 293.719945 65.362452
L 294.13902 67.638514
L 294.807756 67.031645
L 294.892462 53.180266
L 295.217914 65.920652
L 296.56876 61.08449
L 296.582135 61.404252
L 296.885295 56.197537
L 297.090374 70.004687
L 298.534844 61.14377
L 300.010522 58.889522
L 300.01498 59.881236
L 300.407305 57.558348
L 303.447825 68.643573
L 304.482136 65.735311
L 305.208829 68.497478
L 307.567238 56.781857
L 309.430783 54.847612
L 311.316618 63.369322
L 311.468198 62.455843
L 311.499406 68.510878
L 313.875648 60.296345
L 314.227849 56.535396
L 314.678131 69.622451
L 314.740547 58.401672
L 314.936709 54.258065
L 315.7704 70.190848
L 316.292014 52.71556
L 316.309847 60.308981
L 316.537217 57.103984
L 318.003978 53.237099
L 319.778358 56.761021
L 320.527342 63.077676
L 320.620965 61.757709
L 321.820232 53.080445
L 322.497884 58.029826
L 323.202286 48.594338
L 324.071643 57.774074
L 324.419386 58.188152
L 328.685921 64.697035
L 328.81521 51.575308
L 328.984623 55.244139
L 329.234285 56.277881
L 329.622152 49.889944
L 329.903021 62.556862
L 330.290888 50.708845
L 330.371136 65.140935
L 330.709962 56.932358
L 330.848168 50.64459
L 331.289533 56.939441
L 332.341678 52.872854
L 332.765211 63.153222
L 333.585527 59.220466
L 336.505674 63.631702
L 336.670629 53.959404
L 337.571194 51.683567
L 337.963519 54.076564
L 338.84625 54.532423
L 339.207368 54.942656
L 339.318824 61.112167
L 339.876104 61.272025
L 340.29072 57.408243
L 340.625088 57.089474
L 341.868937 53.271925
L 342.720461 45.089512
L 342.854208 58.265796
L 343.250991 47.761081
L 344.026725 52.005606
L 345.422154 57.314176
L 345.63615 51.586664
L 346.434175 54.587965
L 346.452008 49.610809
L 346.64817 51.431688
L 346.679378 56.208961
L 346.683836 54.482984
L 350.70071 53.642465
L 351.1822 51.811385
L 351.636941 43.710549
L 351.828645 61.448508
L 352.443882 47.839667
L 352.466173 61.015123
L 352.568713 60.440926
L 354.240553 41.265038
L 354.592754 58.513806
L 354.664086 44.208944
L 355.457652 53.857077
L 355.738522 52.062193
L 356.22447 50.737196
L 357.713522 58.560847
L 359.305114 51.242254
L 359.336321 47.676027
L 360.321592 49.190914
L 360.459798 57.516686
L 360.491005 46.619022
L 360.629211 47.327105
L 360.771875 60.519252
L 361.841852 31.036235
L 362.020182 52.192917
L 363.981807 56.85311
L 364.293884 33.15895
L 364.32955 54.256473
L 364.445464 46.853428
L 364.828873 53.24654
L 366.523004 50.071227
L 367.361153 49.478065
L 367.789144 32.032769
L 370.597836 33.521324
L 370.673626 37.452129
L 370.691459 47.314312
L 370.71375 46.394592
L 370.811831 47.844648
L 371.382486 41.671191
L 371.440443 44.859956
L 375.5019 49.51966
L 375.564315 47.634848
L 376.010139 61.789872
L 376.955286 45.100478
L 377.227238 58.656917
L 377.601731 46.199722
L 378.141178 56.864448
L 378.578085 48.997455
L 381.35111 51.398559
L 382.915953 53.745262
L 382.933786 50.370411
L 384.155343 58.812256
L 384.538752 46.409714
L 384.819621 52.131505
L 385.524023 46.507643
L 385.564147 42.3043
L 386.36663 61.592733
L 386.576168 40.994556
L 387.601563 44.552117
L 387.739768 43.515124
L 387.940389 53.849322
L 388.488753 48.59292
L 390.677748 52.105399
L 390.77583 60.529808
L 392.657207 51.994208
L 392.768663 45.190656
L 392.920243 55.002221
L 393.361609 46.763428
L 394.146259 52.012904
L 394.440503 51.702086
L 395.960763 53.54528
L 396.241632 52.27723
L 396.415503 56.192531
L 397.258111 58.695358
L 397.628145 39.585352
L 398.662456 57.247982
L 399.429274 48.304509
L 399.808224 62.703649
L 400.37442 44.135248
L 400.601791 63.071309
L 401.078822 54.711196
L 401.435482 56.742901
L 401.890222 52.867376
L 401.916972 64.434424
L 402.25134 68.633472
L 402.670414 55.292347
L 402.817536 63.991318
L 403.26336 60.773214
L 404.155008 55.931877
L 404.636498 58.174496
L 406.473293 51.971252
L 406.620415 72.795991
L 407.128654 50.077437
L 407.449647 58.040761
L 407.561103 48.322911
L 409.643101 48.02586
L 410.441126 50.303563
L 410.574874 57.959482
L 412.063926 61.149344
L 412.340337 53.01064
L 413.918554 58.659928
L 414.538249 53.888085
L 414.770077 53.48114
L 415.189152 62.334661
L 415.465563 58.777649
L 415.603768 60.741044
L 415.915845 56.130873
L 417.364773 58.28456
L 417.975552 64.54333
L 418.087008 53.511072
L 419.219401 68.048566
L 419.540394 55.080571
L 420.039717 68.634117
L 420.646038 61.1243
L 421.047279 60.898646
L 421.421772 67.175362
L 421.435146 53.525049
L 421.537686 67.082316
L 422.375835 62.004942
L 422.69237 79.092997
L 422.732494 75.641095
L 423.347731 65.461574
L 424.653996 68.431556
L 424.983905 68.285652
L 425.255858 70.661068
L 428.403375 70.834916
L 429.397563 67.513607
L 430.387292 79.43444
L 430.842033 59.848272
L 432.62087 74.293054
L 432.915114 70.090394
L 433.329731 72.420865
L 434.056424 72.717818
L 434.239212 68.761748
L 434.364042 69.419875
L 434.689494 66.088276
L 436.022508 65.514315
L 436.356876 65.21838
L 438.438874 54.940272
L 438.519122 65.990065
L 439.15665 70.367261
L 442.058964 72.806674
L 442.67866 74.245499
L 443.173524 75.775992
L 443.918051 64.269928
L 445.322396 77.161584
L 445.643389 78.671715
L 446.205128 85.006657
L 446.717825 76.99393
L 446.749033 73.57627
L 446.842656 74.261886
L 447.44006 75.552104
L 447.645139 84.449039
L 448.452081 79.650609
L 448.541245 77.712328
L 449.049485 73.787212
L 450.043672 70.628151
L 450.30225 80.956207
L 450.832781 80.726398
L 450.85953 71.841226
L 451.069068 74.847008
L 451.483684 70.893631
L 454.194294 75.901357
L 454.880863 74.294165
L 456.075671 72.560224
L 456.76224 71.884984
L 458.246834 76.304007
L 460.239667 69.827817
L 460.582952 78.925432
L 460.81478 76.760699
L 461.162523 81.966814
L 461.871383 75.047178
L 462.00513 71.267582
L 462.263708 69.573722
L 462.825446 79.443303
L 462.910153 73.398915
L 464.755864 72.35364
L 464.809363 74.272517
L 465.201688 76.07723
L 465.330977 71.139764
L 465.674262 72.892819
L 465.692095 78.820406
L 467.034025 81.184545
L 467.98363 86.033401
L 468.121836 76.102084
L 468.331373 81.076216
L 468.803946 78.618417
L 469.851633 81.897742
L 469.976463 81.128469
L 470.043337 86.779092
L 470.105752 81.992978
L 470.404454 77.697587
L 470.707615 80.866716
L 470.930527 79.420711
L 471.313935 82.753002
L 472.84757 85.024021
L 474.403496 83.479891
L 475.990629 79.105444
L 476.677198 82.215482
L 476.944692 82.86614
L 477.020483 85.944937
L 477.827424 84.682133
L 478.451578 86.378861
L 478.879569 82.00123
L 478.933068 84.820687
L 479.91388 80.521958
L 480.029795 83.670328
L 480.729738 91.329281
L 480.867944 83.560521
L 481.973587 84.681759
L 482.09396 86.127984
L 482.909818 87.323354
L 482.981149 84.883829
L 485.067606 89.819198
L 486.364954 89.458957
L 486.663656 85.756984
L 486.833069 91.032222
L 488.063543 86.752231
L 488.727821 87.035575
L 489.56597 84.194927
L 490.105417 90.675336
L 490.390744 92.322437
L 490.9079 88.880724
L 491.861964 92.780806
L 491.942212 91.853044
L 492.624323 94.20846
L 493.850339 97.9684
L 494.001919 97.775129
L 494.902483 95.491909
L 495.241309 98.305195
L 496.453951 95.657627
L 496.520824 97.574263
L 497.122687 97.949637
L 497.755757 97.737545
L 497.951919 97.834838
L 498.027709 95.801791
L 498.70982 98.049784
L 499.048646 97.956325
L 499.561344 98.645567
L 500.007168 98.435701
L 501.643342 98.468099
L 501.928669 98.772105
L 502.062417 98.374722
L 502.798026 98.535151
L 502.922857 98.144089
L 505.053896 98.043245
L 506.391368 98.211731
L 506.476074 97.872654
L 506.904065 98.791628
L 507.492553 98.795261
L 507.492553 98.795261
" clip-path="url(#p5f21ce78c6)" style="fill: none; stroke-dasharray: 3.7,1.6; stroke-dashoffset: 0; stroke: #d62728"/>
   </g>
   <g id="patch_3">
    <path d="M 62.208 102.189176
L 62.208 27.648
" style="fill: none; stroke: #000000; stroke-width: 0.8; stroke-linejoin: miter; stroke-linecap: square"/>
   </g>
   <g id="patch_4">
    <path d="M 508.032 102.189176
L 508.032 27.648
" style="fill: none; stroke: #000000; stroke-width: 0.8; stroke-linejoin: miter; stroke-linecap: square"/>
   </g>
   <g id="patch_5">
    <path d="M 62.208 102.189176
L 508.032 102.189176
" style="fill: none; stroke: #000000; stroke-width: 0.8; stroke-linejoin: miter; stroke-linecap: square"/>
   </g>
   <g id="patch_6">
    <path d="M 62.208 27.648
L 508.032 27.648
" style="fill: none; stroke: #000000; stroke-width: 0.8; stroke-linejoin: miter; stroke-linecap: square"/>
   </g>
   <g id="text_5">
    <!-- Matrix-to-vector output -->
    <g transform="translate(215.192813 21.648) scale(0.12 -0.12)">
     <defs>
      <path id="DejaVuSans-4d" d="M 628 4666
L 1569 4666
L 2759 1491
L 3956 4666
L 4897 4666
L 4897 0
L 4281 0
L 4281 4097
L 3078 897
L 2444 897
L 1241 4097
L 1241 0
L 628 0
L 628 4666
z
" transform="scale(0.015625)"/>
      <path id="DejaVuSans-74" d="M 1172 4494
L 1172 3500
L 2356 3500
L 2356 3053
L 1172 3053
L 1172 1153
Q 1172 725 1289 603
Q 1406 481 1766 481
L 2356 481
L 2356 0
L 1766 0
Q 1100 0 847 248
Q 594 497 594 1153
L 594 3053
L 172 3053
L 172 3500
L 594 3500
L 594 4494
L 1172 4494
z
" transform="scale(0.015625)"/>
      <path id="DejaVuSans-72" d="M 2631 2963
Q 2534 3019 2420 3045
Q 2306 3072 2169 3072
Q 1681 3072 1420 2755
Q 1159 2438 1159 1844
L 1159 0
L 581 0
L 581 3500
L 1159 3500
L 1159 2956
Q 1341 3275 1631 3429
Q 1922 3584 2338 3584
Q 2397 3584 2469 3576
Q 2541 3569 2628 3553
L 2631 2963
z
" transform="scale(0.015625)"/>
      <path id="DejaVuSans-78" d="M 3513 3500
L 2247 1797
L 3578 0
L 2900 0
L 1881 1375
L 863 0
L 184 0
L 1544 1831
L 300 3500
L 978 3500
L 1906 2253
L 2834 3500
L 3513 3500
z
" transform="scale(0.015625)"/>
      <path id="DejaVuSans-2d" d="M 313 2009
L 1997 2009
L 1997 1497
L 313 1497
L 313 2009
z
" transform="scale(0.015625)"/>
      <path id="DejaVuSans-76" d="M 191 3500
L 800 3500
L 1894 563
L 2988 3500
L 3597 3500
L 2284 0
L 1503 0
L 191 3500
z
" transform="scale(0.015625)"/>
      <path id="DejaVuSans-65" d="M 3597 1894
L 3597 1613
L 953 1613
Q 991 1019 1311 708
Q 1631 397 2203 397
Q 2534 397 2845 478
Q 3156 559 3463 722
L 3463 178
Q 3153 47 2828 -22
Q 2503 -91 2169 -91
Q 1331 -91 842 396
Q 353 884 353 1716
Q 353 2575 817 3079
Q 1281 3584 2069 3584
Q 2775 3584 3186 3129
Q 3597 2675 3597 1894
z
M 3022 2063
Q 3016 2534 2758 2815
Q 2500 3097 2075 3097
Q 1594 3097 1305 2825
Q 1016 2553 972 2059
L 3022 2063
z
" transform="scale(0.015625)"/>
      <path id="DejaVuSans-63" d="M 3122 3366
L 3122 2828
Q 2878 2963 2633 3030
Q 2388 3097 2138 3097
Q 1578 3097 1268 2742
Q 959 2388 959 1747
Q 959 1106 1268 751
Q 1578 397 2138 397
Q 2388 397 2633 464
Q 2878 531 3122 666
L 3122 134
Q 2881 22 2623 -34
Q 2366 -91 2075 -91
Q 1284 -91 818 406
Q 353 903 353 1747
Q 353 2603 823 3093
Q 1294 3584 2113 3584
Q 2378 3584 2631 3529
Q 2884 3475 3122 3366
z
" transform="scale(0.015625)"/>
      <path id="DejaVuSans-70" d="M 1159 525
L 1159 -1331
L 581 -1331
L 581 3500
L 1159 3500
L 1159 2969
Q 1341 3281 1617 3432
Q 1894 3584 2278 3584
Q 2916 3584 3314 3078
Q 3713 2572 3713 1747
Q 3713 922 3314 415
Q 2916 -91 2278 -91
Q 1894 -91 1617 61
Q 1341 213 1159 525
z
M 3116 1747
Q 3116 2381 2855 2742
Q 2594 3103 2138 3103
Q 1681 3103 1420 2742
Q 1159 2381 1159 1747
Q 1159 1113 1420 752
Q 1681 391 2138 391
Q 2594 391 2855 752
Q 3116 1113 3116 1747
z
" transform="scale(0.015625)"/>
     </defs>
     <use xlink:href="#DejaVuSans-4d"/>
     <use xlink:href="#DejaVuSans-61" transform="translate(86.279297 0)"/>
     <use xlink:href="#DejaVuSans-74" transform="translate(147.558594 0)"/>
     <use xlink:href="#DejaVuSans-72" transform="translate(186.767578 0)"/>
     <use xlink:href="#DejaVuSans-69" transform="translate(227.880859 0)"/>
     <use xlink:href="#DejaVuSans-78" transform="translate(255.664062 0)"/>
     <use xlink:href="#DejaVuSans-2d" transform="translate(314.84375 0)"/>
     <use xlink:href="#DejaVuSans-74" transform="translate(350.927734 0)"/>
     <use xlink:href="#DejaVuSans-6f" transform="translate(390.136719 0)"/>
     <use xlink:href="#DejaVuSans-2d" transform="translate(453.193359 0)"/>
     <use xlink:href="#DejaVuSans-76" transform="translate(486.652344 0)"/>
     <use xlink:href="#DejaVuSans-65" transform="translate(545.832031 0)"/>
     <use xlink:href="#DejaVuSans-63" transform="translate(607.355469 0)"/>
     <use xlink:href="#DejaVuSans-74" transform="translate(662.335938 0)"/>
     <use xlink:href="#DejaVuSans-6f" transform="translate(701.544922 0)"/>
     <use xlink:href="#DejaVuSans-72" transform="translate(762.726562 0)"/>
     <use xlink:href="#DejaVuSans-20" transform="translate(803.839844 0)"/>
     <use xlink:href="#DejaVuSans-6f" transform="translate(835.626953 0)"/>
     <use xlink:href="#DejaVuSans-75" transform="translate(896.808594 0)"/>
     <use xlink:href="#DejaVuSans-74" transform="translate(960.1875 0)"/>
     <use xlink:href="#DejaVuSans-70" transform="translate(999.396484 0)"/>
     <use xlink:href="#DejaVuSans-75" transform="translate(1062.873047 0)"/>
     <use xlink:href="#DejaVuSans-74" transform="translate(1126.251953 0)"/>
    </g>
   </g>
   <g id="legend_1">
    <g id="patch_7">
     <path d="M 69.208 65.00425
L 155.217375 65.00425
Q 157.217375 65.00425 157.217375 63.00425
L 157.217375 34.648
Q 157.217375 32.648 155.217375 32.648
L 69.208 32.648
Q 67.208 32.648 67.208 34.648
L 67.208 63.00425
Q 67.208 65.00425 69.208 65.00425
z
" style="fill: #ffffff; opacity: 0.8; stroke: #cccccc; stroke-linejoin: miter"/>
    </g>
    <g id="line2d_11">
     <path d="M 71.208 40.746437
L 81.208 40.746437
L 91.208 40.746437
" style="fill: none; stroke: #0057b8; stroke-width: 1.5; stroke-linecap: square"/>
    </g>
    <g id="text_6">
     <!-- reference -->
     <g transform="translate(99.208 44.246437) scale(0.1 -0.1)">
      <defs>
       <path id="DejaVuSans-66" d="M 2375 4863
L 2375 4384
L 1825 4384
Q 1516 4384 1395 4259
Q 1275 4134 1275 3809
L 1275 3500
L 2222 3500
L 2222 3053
L 1275 3053
L 1275 0
L 697 0
L 697 3053
L 147 3053
L 147 3500
L 697 3500
L 697 3744
Q 697 4328 969 4595
Q 1241 4863 1831 4863
L 2375 4863
z
" transform="scale(0.015625)"/>
      </defs>
      <use xlink:href="#DejaVuSans-72"/>
      <use xlink:href="#DejaVuSans-65" transform="translate(38.863281 0)"/>
      <use xlink:href="#DejaVuSans-66" transform="translate(100.386719 0)"/>
      <use xlink:href="#DejaVuSans-65" transform="translate(135.591797 0)"/>
      <use xlink:href="#DejaVuSans-72" transform="translate(197.115234 0)"/>
      <use xlink:href="#DejaVuSans-65" transform="translate(235.978516 0)"/>
      <use xlink:href="#DejaVuSans-6e" transform="translate(297.501953 0)"/>
      <use xlink:href="#DejaVuSans-63" transform="translate(360.880859 0)"/>
      <use xlink:href="#DejaVuSans-65" transform="translate(415.861328 0)"/>
     </g>
    </g>
    <g id="line2d_12">
     <path d="M 71.208 55.424562
L 81.208 55.424562
L 91.208 55.424562
" style="fill: none; stroke-dasharray: 3.7,1.6; stroke-dashoffset: 0; stroke: #d62728"/>
    </g>
    <g id="text_7">
     <!-- ldetect-lite -->
     <g transform="translate(99.208 58.924562) scale(0.1 -0.1)">
      <use xlink:href="#DejaVuSans-6c"/>
      <use xlink:href="#DejaVuSans-64" transform="translate(27.783203 0)"/>
      <use xlink:href="#DejaVuSans-65" transform="translate(91.259766 0)"/>
      <use xlink:href="#DejaVuSans-74" transform="translate(152.783203 0)"/>
      <use xlink:href="#DejaVuSans-65" transform="translate(191.992188 0)"/>
      <use xlink:href="#DejaVuSans-63" transform="translate(253.515625 0)"/>
      <use xlink:href="#DejaVuSans-74" transform="translate(308.496094 0)"/>
      <use xlink:href="#DejaVuSans-2d" transform="translate(347.705078 0)"/>
      <use xlink:href="#DejaVuSans-6c" transform="translate(383.789062 0)"/>
      <use xlink:href="#DejaVuSans-69" transform="translate(411.572266 0)"/>
      <use xlink:href="#DejaVuSans-74" transform="translate(439.355469 0)"/>
      <use xlink:href="#DejaVuSans-65" transform="translate(478.564453 0)"/>
     </g>
    </g>
   </g>
  </g>
  <g id="axes_2">
   <g id="patch_8">
    <path d="M 62.208 205.056
L 508.032 205.056
L 508.032 130.514824
L 62.208 130.514824
z
" style="fill: #ffffff"/>
   </g>
   <g id="matplotlib.axis_3">
    <g id="xtick_6">
     <g id="line2d_13">
      <g>
       <use xlink:href="#m38b0239e43" x="116.741192" y="205.056" style="stroke: #000000; stroke-width: 0.8"/>
      </g>
     </g>
     <g id="text_8">
      <!-- 39,980,000 -->
      <g transform="translate(88.113067 219.654438) scale(0.1 -0.1)">
       <defs>
        <path id="DejaVuSans-33" d="M 2597 2516
Q 3050 2419 3304 2112
Q 3559 1806 3559 1356
Q 3559 666 3084 287
Q 2609 -91 1734 -91
Q 1441 -91 1130 -33
Q 819 25 488 141
L 488 750
Q 750 597 1062 519
Q 1375 441 1716 441
Q 2309 441 2620 675
Q 2931 909 2931 1356
Q 2931 1769 2642 2001
Q 2353 2234 1838 2234
L 1294 2234
L 1294 2753
L 1863 2753
Q 2328 2753 2575 2939
Q 2822 3125 2822 3475
Q 2822 3834 2567 4026
Q 2313 4219 1838 4219
Q 1578 4219 1281 4162
Q 984 4106 628 3988
L 628 4550
Q 988 4650 1302 4700
Q 1616 4750 1894 4750
Q 2613 4750 3031 4423
Q 3450 4097 3450 3541
Q 3450 3153 3228 2886
Q 3006 2619 2597 2516
z
" transform="scale(0.015625)"/>
        <path id="DejaVuSans-39" d="M 703 97
L 703 672
Q 941 559 1184 500
Q 1428 441 1663 441
Q 2288 441 2617 861
Q 2947 1281 2994 2138
Q 2813 1869 2534 1725
Q 2256 1581 1919 1581
Q 1219 1581 811 2004
Q 403 2428 403 3163
Q 403 3881 828 4315
Q 1253 4750 1959 4750
Q 2769 4750 3195 4129
Q 3622 3509 3622 2328
Q 3622 1225 3098 567
Q 2575 -91 1691 -91
Q 1453 -91 1209 -44
Q 966 3 703 97
z
M 1959 2075
Q 2384 2075 2632 2365
Q 2881 2656 2881 3163
Q 2881 3666 2632 3958
Q 2384 4250 1959 4250
Q 1534 4250 1286 3958
Q 1038 3666 1038 3163
Q 1038 2656 1286 2365
Q 1534 2075 1959 2075
z
" transform="scale(0.015625)"/>
        <path id="DejaVuSans-2c" d="M 750 794
L 1409 794
L 1409 256
L 897 -744
L 494 -744
L 750 256
L 750 794
z
" transform="scale(0.015625)"/>
        <path id="DejaVuSans-38" d="M 2034 2216
Q 1584 2216 1326 1975
Q 1069 1734 1069 1313
Q 1069 891 1326 650
Q 1584 409 2034 409
Q 2484 409 2743 651
Q 3003 894 3003 1313
Q 3003 1734 2745 1975
Q 2488 2216 2034 2216
z
M 1403 2484
Q 997 2584 770 2862
Q 544 3141 544 3541
Q 544 4100 942 4425
Q 1341 4750 2034 4750
Q 2731 4750 3128 4425
Q 3525 4100 3525 3541
Q 3525 3141 3298 2862
Q 3072 2584 2669 2484
Q 3125 2378 3379 2068
Q 3634 1759 3634 1313
Q 3634 634 3220 271
Q 2806 -91 2034 -91
Q 1263 -91 848 271
Q 434 634 434 1313
Q 434 1759 690 2068
Q 947 2378 1403 2484
z
M 1172 3481
Q 1172 3119 1398 2916
Q 1625 2713 2034 2713
Q 2441 2713 2670 2916
Q 2900 3119 2900 3481
Q 2900 3844 2670 4047
Q 2441 4250 2034 4250
Q 1625 4250 1398 4047
Q 1172 3844 1172 3481
z
" transform="scale(0.015625)"/>
       </defs>
       <use xlink:href="#DejaVuSans-33"/>
       <use xlink:href="#DejaVuSans-39" transform="translate(63.623047 0)"/>
       <use xlink:href="#DejaVuSans-2c" transform="translate(127.246094 0)"/>
       <use xlink:href="#DejaVuSans-39" transform="translate(159.033203 0)"/>
       <use xlink:href="#DejaVuSans-38" transform="translate(222.65625 0)"/>
       <use xlink:href="#DejaVuSans-30" transform="translate(286.279297 0)"/>
       <use xlink:href="#DejaVuSans-2c" transform="translate(349.902344 0)"/>
       <use xlink:href="#DejaVuSans-30" transform="translate(381.689453 0)"/>
       <use xlink:href="#DejaVuSans-30" transform="translate(445.3125 0)"/>
       <use xlink:href="#DejaVuSans-30" transform="translate(508.935547 0)"/>
      </g>
     </g>
    </g>
    <g id="xtick_7">
     <g id="line2d_14">
      <g>
       <use xlink:href="#m38b0239e43" x="205.905992" y="205.056" style="stroke: #000000; stroke-width: 0.8"/>
      </g>
     </g>
     <g id="text_9">
      <!-- 40,000,000 -->
      <g transform="translate(177.277867 219.654438) scale(0.1 -0.1)">
       <defs>
        <path id="DejaVuSans-34" d="M 2419 4116
L 825 1625
L 2419 1625
L 2419 4116
z
M 2253 4666
L 3047 4666
L 3047 1625
L 3713 1625
L 3713 1100
L 3047 1100
L 3047 0
L 2419 0
L 2419 1100
L 313 1100
L 313 1709
L 2253 4666
z
" transform="scale(0.015625)"/>
       </defs>
       <use xlink:href="#DejaVuSans-34"/>
       <use xlink:href="#DejaVuSans-30" transform="translate(63.623047 0)"/>
       <use xlink:href="#DejaVuSans-2c" transform="translate(127.246094 0)"/>
       <use xlink:href="#DejaVuSans-30" transform="translate(159.033203 0)"/>
       <use xlink:href="#DejaVuSans-30" transform="translate(222.65625 0)"/>
       <use xlink:href="#DejaVuSans-30" transform="translate(286.279297 0)"/>
       <use xlink:href="#DejaVuSans-2c" transform="translate(349.902344 0)"/>
       <use xlink:href="#DejaVuSans-30" transform="translate(381.689453 0)"/>
       <use xlink:href="#DejaVuSans-30" transform="translate(445.3125 0)"/>
       <use xlink:href="#DejaVuSans-30" transform="translate(508.935547 0)"/>
      </g>
     </g>
    </g>
    <g id="xtick_8">
     <g id="line2d_15">
      <g>
       <use xlink:href="#m38b0239e43" x="295.070792" y="205.056" style="stroke: #000000; stroke-width: 0.8"/>
      </g>
     </g>
     <g id="text_10">
      <!-- 40,020,000 -->
      <g transform="translate(266.442667 219.654438) scale(0.1 -0.1)">
       <use xlink:href="#DejaVuSans-34"/>
       <use xlink:href="#DejaVuSans-30" transform="translate(63.623047 0)"/>
       <use xlink:href="#DejaVuSans-2c" transform="translate(127.246094 0)"/>
       <use xlink:href="#DejaVuSans-30" transform="translate(159.033203 0)"/>
       <use xlink:href="#DejaVuSans-32" transform="translate(222.65625 0)"/>
       <use xlink:href="#DejaVuSans-30" transform="translate(286.279297 0)"/>
       <use xlink:href="#DejaVuSans-2c" transform="translate(349.902344 0)"/>
       <use xlink:href="#DejaVuSans-30" transform="translate(381.689453 0)"/>
       <use xlink:href="#DejaVuSans-30" transform="translate(445.3125 0)"/>
       <use xlink:href="#DejaVuSans-30" transform="translate(508.935547 0)"/>
      </g>
     </g>
    </g>
    <g id="xtick_9">
     <g id="line2d_16">
      <g>
       <use xlink:href="#m38b0239e43" x="384.235592" y="205.056" style="stroke: #000000; stroke-width: 0.8"/>
      </g>
     </g>
     <g id="text_11">
      <!-- 40,040,000 -->
      <g transform="translate(355.607467 219.654438) scale(0.1 -0.1)">
       <use xlink:href="#DejaVuSans-34"/>
       <use xlink:href="#DejaVuSans-30" transform="translate(63.623047 0)"/>
       <use xlink:href="#DejaVuSans-2c" transform="translate(127.246094 0)"/>
       <use xlink:href="#DejaVuSans-30" transform="translate(159.033203 0)"/>
       <use xlink:href="#DejaVuSans-34" transform="translate(222.65625 0)"/>
       <use xlink:href="#DejaVuSans-30" transform="translate(286.279297 0)"/>
       <use xlink:href="#DejaVuSans-2c" transform="translate(349.902344 0)"/>
       <use xlink:href="#DejaVuSans-30" transform="translate(381.689453 0)"/>
       <use xlink:href="#DejaVuSans-30" transform="translate(445.3125 0)"/>
       <use xlink:href="#DejaVuSans-30" transform="translate(508.935547 0)"/>
      </g>
     </g>
    </g>
    <g id="xtick_10">
     <g id="line2d_17">
      <g>
       <use xlink:href="#m38b0239e43" x="473.400392" y="205.056" style="stroke: #000000; stroke-width: 0.8"/>
      </g>
     </g>
     <g id="text_12">
      <!-- 40,060,000 -->
      <g transform="translate(444.772267 219.654438) scale(0.1 -0.1)">
       <defs>
        <path id="DejaVuSans-36" d="M 2113 2584
Q 1688 2584 1439 2293
Q 1191 2003 1191 1497
Q 1191 994 1439 701
Q 1688 409 2113 409
Q 2538 409 2786 701
Q 3034 994 3034 1497
Q 3034 2003 2786 2293
Q 2538 2584 2113 2584
z
M 3366 4563
L 3366 3988
Q 3128 4100 2886 4159
Q 2644 4219 2406 4219
Q 1781 4219 1451 3797
Q 1122 3375 1075 2522
Q 1259 2794 1537 2939
Q 1816 3084 2150 3084
Q 2853 3084 3261 2657
Q 3669 2231 3669 1497
Q 3669 778 3244 343
Q 2819 -91 2113 -91
Q 1303 -91 875 529
Q 447 1150 447 2328
Q 447 3434 972 4092
Q 1497 4750 2381 4750
Q 2619 4750 2861 4703
Q 3103 4656 3366 4563
z
" transform="scale(0.015625)"/>
       </defs>
       <use xlink:href="#DejaVuSans-34"/>
       <use xlink:href="#DejaVuSans-30" transform="translate(63.623047 0)"/>
       <use xlink:href="#DejaVuSans-2c" transform="translate(127.246094 0)"/>
       <use xlink:href="#DejaVuSans-30" transform="translate(159.033203 0)"/>
       <use xlink:href="#DejaVuSans-36" transform="translate(222.65625 0)"/>
       <use xlink:href="#DejaVuSans-30" transform="translate(286.279297 0)"/>
       <use xlink:href="#DejaVuSans-2c" transform="translate(349.902344 0)"/>
       <use xlink:href="#DejaVuSans-30" transform="translate(381.689453 0)"/>
       <use xlink:href="#DejaVuSans-30" transform="translate(445.3125 0)"/>
       <use xlink:href="#DejaVuSans-30" transform="translate(508.935547 0)"/>
      </g>
     </g>
    </g>
    <g id="text_13">
     <!-- chr2 (hg19) -->
     <g transform="translate(255.769219 233.332563) scale(0.1 -0.1)">
      <defs>
       <path id="DejaVuSans-68" d="M 3513 2113
L 3513 0
L 2938 0
L 2938 2094
Q 2938 2591 2744 2837
Q 2550 3084 2163 3084
Q 1697 3084 1428 2787
Q 1159 2491 1159 1978
L 1159 0
L 581 0
L 581 4863
L 1159 4863
L 1159 2956
Q 1366 3272 1645 3428
Q 1925 3584 2291 3584
Q 2894 3584 3203 3211
Q 3513 2838 3513 2113
z
" transform="scale(0.015625)"/>
       <path id="DejaVuSans-28" d="M 1984 4856
Q 1566 4138 1362 3434
Q 1159 2731 1159 2009
Q 1159 1288 1364 580
Q 1569 -128 1984 -844
L 1484 -844
Q 1016 -109 783 600
Q 550 1309 550 2009
Q 550 2706 781 3412
Q 1013 4119 1484 4856
L 1984 4856
z
" transform="scale(0.015625)"/>
       <path id="DejaVuSans-29" d="M 513 4856
L 1013 4856
Q 1481 4119 1714 3412
Q 1947 2706 1947 2009
Q 1947 1309 1714 600
Q 1481 -109 1013 -844
L 513 -844
Q 928 -128 1133 580
Q 1338 1288 1338 2009
Q 1338 2731 1133 3434
Q 928 4138 513 4856
z
" transform="scale(0.015625)"/>
      </defs>
      <use xlink:href="#DejaVuSans-63"/>
      <use xlink:href="#DejaVuSans-68" transform="translate(54.980469 0)"/>
      <use xlink:href="#DejaVuSans-72" transform="translate(118.359375 0)"/>
      <use xlink:href="#DejaVuSans-32" transform="translate(159.472656 0)"/>
      <use xlink:href="#DejaVuSans-20" transform="translate(223.095703 0)"/>
      <use xlink:href="#DejaVuSans-28" transform="translate(254.882812 0)"/>
      <use xlink:href="#DejaVuSans-68" transform="translate(293.896484 0)"/>
      <use xlink:href="#DejaVuSans-67" transform="translate(357.275391 0)"/>
      <use xlink:href="#DejaVuSans-31" transform="translate(420.751953 0)"/>
      <use xlink:href="#DejaVuSans-39" transform="translate(484.375 0)"/>
      <use xlink:href="#DejaVuSans-29" transform="translate(547.998047 0)"/>
     </g>
    </g>
   </g>
   <g id="matplotlib.axis_4">
    <g id="ytick_4">
     <g id="line2d_18">
      <g>
       <use xlink:href="#mc15e496719" x="62.208" y="177.026053" style="stroke: #000000; stroke-width: 0.8"/>
      </g>
     </g>
     <g id="text_14">
      <!-- 0 -->
      <g transform="translate(48.8455 180.825272) scale(0.1 -0.1)">
       <use xlink:href="#DejaVuSans-30"/>
      </g>
     </g>
    </g>
    <g id="ytick_5">
     <g id="line2d_19">
      <g>
       <use xlink:href="#mc15e496719" x="62.208" y="148.125949" style="stroke: #000000; stroke-width: 0.8"/>
      </g>
     </g>
     <g id="text_15">
      <!-- 5 -->
      <g transform="translate(48.8455 151.925168) scale(0.1 -0.1)">
       <defs>
        <path id="DejaVuSans-35" d="M 691 4666
L 3169 4666
L 3169 4134
L 1269 4134
L 1269 2991
Q 1406 3038 1543 3061
Q 1681 3084 1819 3084
Q 2600 3084 3056 2656
Q 3513 2228 3513 1497
Q 3513 744 3044 326
Q 2575 -91 1722 -91
Q 1428 -91 1123 -41
Q 819 9 494 109
L 494 744
Q 775 591 1075 516
Q 1375 441 1709 441
Q 2250 441 2565 725
Q 2881 1009 2881 1497
Q 2881 1984 2565 2268
Q 2250 2553 1709 2553
Q 1456 2553 1204 2497
Q 953 2441 691 2322
L 691 4666
z
" transform="scale(0.015625)"/>
       </defs>
       <use xlink:href="#DejaVuSans-35"/>
      </g>
     </g>
    </g>
    <g id="text_16">
     <!-- difference -->
     <g transform="translate(42.765812 192.959631) rotate(-90) scale(0.1 -0.1)">
      <use xlink:href="#DejaVuSans-64"/>
      <use xlink:href="#DejaVuSans-69" transform="translate(63.476562 0)"/>
      <use xlink:href="#DejaVuSans-66" transform="translate(91.259766 0)"/>
      <use xlink:href="#DejaVuSans-66" transform="translate(126.464844 0)"/>
      <use xlink:href="#DejaVuSans-65" transform="translate(161.669922 0)"/>
      <use xlink:href="#DejaVuSans-72" transform="translate(223.193359 0)"/>
      <use xlink:href="#DejaVuSans-65" transform="translate(262.056641 0)"/>
      <use xlink:href="#DejaVuSans-6e" transform="translate(323.580078 0)"/>
      <use xlink:href="#DejaVuSans-63" transform="translate(386.958984 0)"/>
      <use xlink:href="#DejaVuSans-65" transform="translate(441.939453 0)"/>
     </g>
    </g>
    <g id="text_17">
     <!-- 1e−14 -->
     <g transform="translate(62.208 127.514824) scale(0.1 -0.1)">
      <defs>
       <path id="DejaVuSans-2212" d="M 678 2272
L 4684 2272
L 4684 1741
L 678 1741
L 678 2272
z
" transform="scale(0.015625)"/>
      </defs>
      <use xlink:href="#DejaVuSans-31"/>
      <use xlink:href="#DejaVuSans-65" transform="translate(63.623047 0)"/>
      <use xlink:href="#DejaVuSans-2212" transform="translate(125.146484 0)"/>
      <use xlink:href="#DejaVuSans-31" transform="translate(208.935547 0)"/>
      <use xlink:href="#DejaVuSans-34" transform="translate(272.558594 0)"/>
     </g>
    </g>
   </g>
   <g id="line2d_20">
    <path d="M 62.208 177.026053
L 64.178542 177.026053
L 64.272165 176.897711
L 65.899423 177.154396
L 66.064378 177.026053
L 66.599366 177.282738
L 68.471827 176.769369
L 68.81957 177.026053
L 70.741071 177.026053
L 71.851173 176.769369
L 73.121772 177.154396
L 73.233228 177.026053
L 73.799424 176.897711
L 73.866298 177.282738
L 74.111501 177.026053
L 74.428036 177.282738
L 74.757946 177.026053
L 75.350892 176.897711
L 76.166749 178.052791
L 77.169853 177.41108
L 77.187686 176.512684
L 77.539887 177.796107
L 79.795757 176.256
L 81.07973 176.897711
L 81.084188 178.052791
L 83.05473 176.769369
L 84.289663 177.026053
L 85.377473 176.769369
L 85.957044 176.256
L 86.072959 177.539422
L 86.527699 178.052791
L 86.839776 175.999316
L 86.946774 177.539422
L 88.199539 177.026053
L 88.235205 175.999316
L 90.143332 178.052791
L 90.878941 177.026053
L 91.962294 175.999316
L 92.992147 177.796107
L 93.11252 177.026053
L 93.977418 177.026053
L 95.845421 176.769369
L 96.139665 179.079529
L 96.242204 174.459209
L 96.884191 176.512684
L 97.294349 177.026053
L 97.704507 178.052791
L 97.94971 177.796107
L 98.145873 176.512684
L 100.085207 175.485947
L 100.169914 176.512684
L 100.66032 174.459209
L 101.930918 178.052791
L 102.519406 178.052791
L 104.075332 175.999316
L 104.547905 177.026053
L 104.86444 177.026053
L 105.065061 179.079529
L 105.087352 175.999316
L 105.546551 179.079529
L 105.885377 176.512684
L 107.173809 178.56616
L 107.610716 174.972578
L 107.967375 177.026053
L 109.188933 175.999316
L 109.438595 178.052791
L 110.325784 181.133005
L 110.84294 174.972578
L 112.840232 178.052791
L 114.873189 175.485947
L 115.711338 175.999316
L 115.952083 179.592898
L 118.176745 174.972578
L 118.890063 174.972578
L 119.647964 177.026053
L 119.719296 174.972578
L 119.968957 178.56616
L 122.474488 177.026053
L 122.536904 175.999316
L 123.691588 171.892364
L 124.088371 180.106267
L 124.208744 175.999316
L 124.525279 182.159743
L 125.153891 172.919102
L 125.911791 181.133005
L 126.330866 175.999316
L 128.769523 178.56616
L 129.197514 181.133005
L 129.661171 174.972578
L 129.670088 179.079529
L 130.775731 177.026053
L 133.504174 180.106267
L 133.695878 175.999316
L 135.657504 183.186481
L 135.679795 178.052791
L 138.051579 183.186481
L 138.439446 177.026053
L 141.043058 181.133005
L 142.340406 171.892364
L 142.928893 177.026053
L 144.91281 175.999316
L 146.125452 179.079529
L 148.541818 181.133005
L 148.568567 177.026053
L 148.782563 177.026053
L 149.228387 175.999316
L 149.723251 181.133005
L 151.078556 175.999316
L 153.945204 178.052791
L 154.199324 174.972578
L 155.541254 169.838888
L 155.991537 178.052791
L 157.3513 171.892364
L 158.448027 178.56616
L 161.354799 179.079529
L 162.69673 180.106267
L 162.839393 179.079529
L 164.613773 177.026053
L 164.636064 183.186481
L 164.885725 174.972578
L 165.527712 173.94584
L 165.795206 178.052791
L 165.906662 174.972578
L 167.186177 173.94584
L 167.239676 177.026053
L 168.077825 180.106267
L 169.179011 179.079529
L 169.268175 175.999316
L 170.427318 180.106267
L 170.431776 170.865626
L 170.494191 181.133005
L 170.62348 171.892364
L 170.783977 175.999316
L 172.865975 173.94584
L 173.133469 171.892364
L 175.442838 172.919102
L 176.205197 178.052791
L 176.494982 170.865626
L 177.172635 177.026053
L 177.854746 173.94584
L 177.903786 171.892364
L 178.162364 175.999316
L 178.559148 173.94584
L 178.568064 190.373647
L 178.942556 173.94584
L 179.067387 182.159743
L 179.71829 168.81215
L 180.721394 172.919102
L 180.783809 177.026053
L 181.234092 184.213219
L 181.23855 182.159743
L 181.421338 172.919102
L 181.849329 180.106267
L 183.962534 175.999316
L 184.381609 173.94584
L 184.70706 184.213219
L 185.763663 178.052791
L 186.013325 183.186481
L 187.101135 177.026053
L 187.560334 183.186481
L 187.662874 177.026053
L 188.630312 177.026053
L 189.098427 170.865626
L 189.205425 179.079529
L 189.593292 178.052791
L 190.110447 175.999316
L 191.581667 178.052791
L 194.247694 178.052791
L 194.323484 181.133005
L 194.644477 182.159743
L 195.62529 168.81215
L 196.878056 182.159743
L 197.658248 179.592898
L 198.991261 170.865626
L 199.174049 174.972578
L 200.97072 170.865626
L 201.260506 182.159743
L 202.147695 175.999316
L 202.419648 182.159743
L 202.852097 175.999316
L 203.27563 181.133005
L 205.041093 176.512684
L 205.767786 176.512684
L 205.923825 178.052791
L 206.293859 180.106267
L 206.54352 175.999316
L 208.077155 175.999316
L 208.184152 181.133005
L 209.004468 174.459209
L 209.552832 173.94584
L 210.426647 182.159743
L 213.917449 181.133005
L 214.211693 177.026053
L 214.327607 178.56616
L 216.133194 178.56616
L 218.001197 175.485947
L 218.464854 179.592898
L 220.087653 178.56616
L 221.937823 174.972578
L 222.32569 174.715893
L 224.742056 173.94584
L 224.849053 174.972578
L 226.097361 172.405733
L 227.965363 177.026053
L 227.97428 180.619636
L 228.486977 178.56616
L 228.816887 174.972578
L 229.017508 176.512684
L 229.276086 172.405733
L 229.490081 176.512684
L 230.292564 179.079529
L 230.421853 174.972578
L 230.845386 178.052791
L 233.587204 176.769369
L 234.572475 177.539422
L 234.625974 178.309476
L 235.829699 177.796107
L 238.718638 178.56616
L 238.963841 174.459209
L 239.240252 177.539422
L 240.662431 175.485947
L 241.603119 175.999316
L 242.481393 172.405733
L 242.762262 174.459209
L 243.480038 176.769369
L 244.839802 179.592898
L 245.049339 178.052791
L 246.21294 179.592898
L 246.475976 178.052791
L 247.492454 176.512684
L 248.241439 175.742631
L 249.841947 178.56616
L 250.051484 177.796107
L 250.680096 179.079529
L 250.733595 176.512684
L 252.436643 175.485947
L 253.145503 175.485947
L 254.500808 180.362952
L 254.505266 177.026053
L 256.694262 175.229262
L 257.750865 177.026053
L 258.392851 175.485947
L 259.320165 180.619636
L 259.329082 182.159743
L 259.752614 171.892364
L 260.737885 182.673112
L 261.825696 173.94584
L 262.097649 177.539422
L 262.579139 175.485947
L 263.28354 170.352257
L 263.448495 170.865626
L 263.84082 173.432471
L 264.589805 174.972578
L 265.356622 173.94584
L 265.570618 177.539422
L 266.939297 173.432471
L 268.740426 177.026053
L 268.95888 171.378995
L 269.355663 180.106267
L 269.373496 175.485947
L 270.305268 178.052791
L 270.715427 175.999316
L 271.067628 171.892364
L 271.308372 170.865626
L 271.656115 182.159743
L 272.142063 187.293433
L 272.146522 182.159743
L 272.356059 177.026053
L 272.712718 175.999316
L 273.403745 168.81215
L 273.524118 177.539422
L 274.219603 190.373647
L 274.518305 182.159743
L 274.705551 168.81215
L 275.16475 179.079529
L 276.328351 162.651722
L 277.179875 181.133005
L 277.558825 171.892364
L 278.758092 183.186481
L 279.203916 168.81215
L 280.073272 177.026053
L 281.375078 168.81215
L 283.078126 175.999316
L 283.113792 182.159743
L 283.434785 187.293433
L 283.720113 174.972578
L 284.103521 187.293433
L 284.616219 171.892364
L 285.155666 179.079529
L 286.524346 172.919102
L 286.79184 165.731936
L 286.796298 182.159743
L 287.01921 179.079529
L 287.242122 156.491294
L 287.536366 183.186481
L 287.875192 172.919102
L 288.004481 178.052791
L 288.031231 154.437818
L 288.249684 179.079529
L 289.136874 184.213219
L 289.243872 181.133005
L 289.453409 181.133005
L 289.676321 166.758674
L 290.411931 166.758674
L 292.600927 172.919102
L 293.608489 178.052791
L 293.719945 173.94584
L 294.13902 172.919102
L 294.807756 169.838888
L 294.830047 181.133005
L 294.892462 166.758674
L 295.217914 177.026053
L 296.56876 156.491294
L 296.582135 174.972578
L 296.885295 199.614289
L 297.090374 182.159743
L 298.534844 178.052791
L 300.010522 179.079529
L 300.01498 187.293433
L 300.407305 174.972578
L 302.556177 181.133005
L 303.447825 179.079529
L 304.450929 187.293433
L 304.482136 163.67846
L 305.208829 166.758674
L 307.567238 170.865626
L 309.430783 164.705198
L 311.468198 177.026053
L 311.499406 181.133005
L 313.875648 185.239957
L 314.227849 179.079529
L 314.678131 184.213219
L 314.740547 168.81215
L 314.936709 174.972578
L 315.7704 172.919102
L 316.131517 177.026053
L 316.292014 181.133005
L 316.309847 189.346909
L 316.537217 172.919102
L 318.003978 199.614289
L 319.778358 160.598246
L 320.527342 182.159743
L 320.620965 179.079529
L 321.820232 133.903059
L 322.497884 156.491294
L 323.055164 181.133005
L 323.202286 164.705198
L 323.884397 181.133005
L 324.071643 195.507337
L 324.419386 179.079529
L 328.685921 186.266695
L 328.81521 177.026053
L 328.984623 183.186481
L 329.234285 174.972578
L 329.622152 181.133005
L 329.903021 172.919102
L 330.215098 172.919102
L 330.290888 170.865626
L 330.371136 182.159743
L 330.709962 179.079529
L 330.848168 170.865626
L 331.289533 179.079529
L 332.341678 154.437818
L 332.765211 177.026053
L 333.585527 199.614289
L 336.505674 181.133005
L 336.670629 154.437818
L 337.571194 187.293433
L 337.963519 160.598246
L 338.84625 177.026053
L 339.207368 158.54477
L 339.318824 191.400385
L 339.876104 167.785412
L 340.29072 179.079529
L 340.625088 172.919102
L 341.012955 185.239957
L 341.868937 195.507337
L 342.720461 172.919102
L 342.854208 172.919102
L 343.250991 170.865626
L 344.026725 183.186481
L 345.422154 162.651722
L 345.63615 164.705198
L 346.452008 164.705198
L 346.64817 160.598246
L 346.679378 177.026053
L 346.683836 174.972578
L 350.70071 170.865626
L 351.1822 181.133005
L 351.636941 199.614289
L 351.828645 179.079529
L 352.443882 185.239957
L 352.568713 179.079529
L 354.240553 187.293433
L 354.664086 166.758674
L 355.457652 166.758674
L 355.738522 187.293433
L 356.22447 189.346909
L 357.713522 162.651722
L 359.305114 181.133005
L 359.336321 170.865626
L 360.321592 201.667765
L 360.491005 177.026053
L 360.629211 179.079529
L 360.771875 148.27739
L 361.841852 170.865626
L 362.020182 160.598246
L 363.981807 166.758674
L 364.293884 181.133005
L 364.445464 166.758674
L 364.828873 177.026053
L 366.523004 164.705198
L 367.361153 195.507337
L 367.789144 170.865626
L 370.597836 181.133005
L 370.673626 158.54477
L 370.691459 189.346909
L 370.71375 166.758674
L 370.811831 166.758674
L 371.382486 183.186481
L 371.440443 191.400385
L 375.5019 181.133005
L 375.564315 164.705198
L 376.010139 166.758674
L 376.955286 166.758674
L 377.227238 168.81215
L 378.141178 191.400385
L 378.578085 174.972578
L 381.35111 183.186481
L 382.915953 170.865626
L 382.933786 181.133005
L 384.155343 179.079529
L 384.538752 187.293433
L 384.819621 174.972578
L 385.524023 168.81215
L 385.564147 183.186481
L 386.36663 178.052791
L 386.576168 166.758674
L 387.601563 168.81215
L 387.739768 191.400385
L 387.940389 177.026053
L 388.488753 191.400385
L 390.677748 193.453861
L 390.77583 177.026053
L 392.657207 168.81215
L 392.920243 179.079529
L 393.361609 181.133005
L 394.146259 172.919102
L 394.440503 174.972578
L 395.960763 181.133005
L 396.241632 174.972578
L 396.415503 187.293433
L 397.258111 181.133005
L 397.628145 168.81215
L 398.007095 187.293433
L 398.221091 189.346909
L 398.662456 183.186481
L 399.429274 181.133005
L 399.723517 179.079529
L 399.808224 182.159743
L 400.37442 166.758674
L 400.601791 175.999316
L 401.078822 166.758674
L 401.435482 179.079529
L 401.890222 162.651722
L 401.916972 170.865626
L 402.25134 179.079529
L 402.670414 181.133005
L 402.817536 184.213219
L 403.26336 187.293433
L 404.155008 162.651722
L 404.636498 174.972578
L 406.473293 183.186481
L 406.620415 179.079529
L 407.128654 160.598246
L 407.449647 166.758674
L 407.561103 174.972578
L 409.643101 179.079529
L 410.441126 172.919102
L 410.574874 174.972578
L 412.063926 177.026053
L 412.340337 174.972578
L 413.918554 170.865626
L 414.538249 183.186481
L 414.770077 179.079529
L 415.189152 177.026053
L 415.465563 174.972578
L 415.603768 170.865626
L 415.915845 168.81215
L 417.364773 189.346909
L 417.975552 173.94584
L 418.087008 183.186481
L 419.219401 180.106267
L 419.540394 181.133005
L 420.039717 178.052791
L 420.646038 175.999316
L 421.047279 177.026053
L 421.421772 179.079529
L 421.435146 172.919102
L 421.537686 180.106267
L 422.375835 177.026053
L 422.69237 174.972578
L 422.732494 175.999316
L 423.347731 171.892364
L 424.653996 170.865626
L 424.983905 174.972578
L 425.255858 173.94584
L 428.403375 174.972578
L 429.397563 177.026053
L 430.387292 175.999316
L 430.842033 179.079529
L 432.62087 177.026053
L 432.915114 180.106267
L 433.329731 174.972578
L 434.056424 173.94584
L 434.239212 173.94584
L 434.364042 175.999316
L 434.689494 173.94584
L 436.022508 180.106267
L 436.356876 173.94584
L 438.438874 187.293433
L 438.519122 182.159743
L 439.15665 179.079529
L 442.058964 178.052791
L 442.67866 173.94584
L 443.173524 180.106267
L 443.918051 177.026053
L 445.322396 180.106267
L 445.643389 175.999316
L 446.205128 180.106267
L 446.717825 177.026053
L 446.842656 179.079529
L 447.645139 176.512684
L 448.452081 181.133005
L 448.737408 177.026053
L 448.862239 177.026053
L 449.049485 179.079529
L 450.043672 177.026053
L 450.30225 179.079529
L 450.832781 174.972578
L 450.85953 178.052791
L 451.069068 175.999316
L 451.483684 177.026053
L 454.194294 177.026053
L 454.880863 178.052791
L 456.075671 183.186481
L 456.76224 177.026053
L 458.246834 181.133005
L 459.646721 178.052791
L 460.239667 181.133005
L 460.582952 175.999316
L 460.81478 181.133005
L 461.162523 174.972578
L 462.00513 180.106267
L 462.825446 180.106267
L 462.910153 171.892364
L 464.755864 181.133005
L 464.809363 173.94584
L 465.201688 178.052791
L 465.330977 177.026053
L 465.674262 181.133005
L 465.692095 172.919102
L 467.034025 173.432471
L 467.98363 175.999316
L 468.121836 175.999316
L 468.331373 177.026053
L 468.803946 177.026053
L 469.851633 176.512684
L 469.976463 178.052791
L 470.043337 177.539422
L 470.105752 177.026053
L 470.404454 180.106267
L 470.707615 177.026053
L 470.930527 181.133005
L 471.313935 180.619636
L 474.403496 174.459209
L 475.990629 177.026053
L 476.677198 177.026053
L 476.944692 176.512684
L 477.020483 179.079529
L 477.827424 176.512684
L 478.451578 175.999316
L 478.879569 180.106267
L 478.933068 175.999316
L 479.91388 180.106267
L 480.029795 177.026053
L 480.729738 177.796107
L 480.867944 177.026053
L 481.973587 175.999316
L 482.09396 174.459209
L 482.909818 176.512684
L 482.981149 177.539422
L 485.067606 177.539422
L 486.364954 179.592898
L 486.663656 175.999316
L 486.833069 177.026053
L 488.063543 177.539422
L 488.727821 176.512684
L 489.56597 177.026053
L 490.105417 176.512684
L 490.390744 177.539422
L 490.9079 177.539422
L 491.647968 178.052791
L 491.861964 177.282738
L 491.942212 178.052791
L 492.624323 176.769369
L 494.001919 176.897711
L 494.902483 177.539422
L 495.241309 177.282738
L 496.453951 177.026053
L 496.520824 177.539422
L 497.122687 176.897711
L 497.755757 176.769369
L 498.027709 177.539422
L 499.048646 177.026053
L 500.007168 177.154396
L 501.643342 177.026053
L 501.928669 177.282738
L 502.062417 176.897711
L 502.798026 177.026053
L 502.922857 176.897711
L 505.053896 176.769369
L 506.391368 176.897711
L 506.476074 176.641027
L 506.904065 177.026053
L 507.492553 177.026053
L 507.492553 177.026053
" clip-path="url(#p74ef4d24ce)" style="fill: none; stroke: #d62728; stroke-linecap: square"/>
   </g>
   <g id="line2d_21">
    <path d="M 62.208 177.026053
L 508.032 177.026053
" clip-path="url(#p74ef4d24ce)" style="fill: none; stroke: #000000; stroke-width: 0.8; stroke-linecap: square"/>
   </g>
   <g id="patch_9">
    <path d="M 62.208 205.056
L 62.208 130.514824
" style="fill: none; stroke: #000000; stroke-width: 0.8; stroke-linejoin: miter; stroke-linecap: square"/>
   </g>
   <g id="patch_10">
    <path d="M 508.032 205.056
L 508.032 130.514824
" style="fill: none; stroke: #000000; stroke-width: 0.8; stroke-linejoin: miter; stroke-linecap: square"/>
   </g>
   <g id="patch_11">
    <path d="M 62.208 205.056
L 508.032 205.056
" style="fill: none; stroke: #000000; stroke-width: 0.8; stroke-linejoin: miter; stroke-linecap: square"/>
   </g>
   <g id="patch_12">
    <path d="M 62.208 130.514824
L 508.032 130.514824
" style="fill: none; stroke: #000000; stroke-width: 0.8; stroke-linejoin: miter; stroke-linecap: square"/>
   </g>
  </g>
 </g>
 <defs>
  <clipPath id="p5f21ce78c6">
   <rect x="62.208" y="27.648" width="445.824" height="74.541176"/>
  </clipPath>
  <clipPath id="p74ef4d24ce">
   <rect x="62.208" y="130.514824" width="445.824" height="74.541176"/>
  </clipPath>
 </defs>
</svg>
